<svg width="16" height="16" viewBox="0 0 16 16" fill="none" xmlns="http://www.w3.org/2000/svg">
<path d="M13.0306 11.969C13.1715 12.1099 13.2507 12.301 13.2507 12.5002C13.2507 12.6995 13.1715 12.8906 13.0306 13.0315C12.8897 13.1724 12.6986 13.2515 12.4994 13.2515C12.3001 13.2515 12.109 13.1724 11.9681 13.0315L8 9.06212L4.03063 13.0302C3.88973 13.1711 3.69864 13.2503 3.49938 13.2503C3.30012 13.2503 3.10902 13.1711 2.96813 13.0302C2.82723 12.8894 2.74808 12.6983 2.74808 12.499C2.74808 12.2997 2.82723 12.1086 2.96813 11.9677L6.9375 7.99962L2.96938 4.03025C2.82848 3.88935 2.74933 3.69825 2.74933 3.499C2.74933 3.29974 2.82848 3.10864 2.96938 2.96775C3.11027 2.82685 3.30137 2.7477 3.50063 2.7477C3.69989 2.7477 3.89098 2.82685 4.03188 2.96775L8 6.93712L11.9694 2.96712C12.1103 2.82622 12.3014 2.74707 12.5006 2.74707C12.6999 2.74707 12.891 2.82622 13.0319 2.96712C13.1728 3.10802 13.2519 3.29911 13.2519 3.49837C13.2519 3.69763 13.1728 3.88873 13.0319 4.02962L9.0625 7.99962L13.0306 11.969Z" fill="white"/>
</svg>
