<svg width="62" height="76" viewBox="0 0 62 76" fill="none" xmlns="http://www.w3.org/2000/svg">
<path d="M5.63544 59.0415C8.40536 69.1256 20.0581 72.7238 29.514 71.1424M5.63544 59.0415C4.07275 53.3673 5.68691 47.9354 7.30587 42.4873C7.74019 41.0257 8.17486 39.5629 8.54863 38.094C9.36051 34.9313 10.0052 31.7227 9.79032 28.4225C9.66675 26.538 8.96689 24.8961 8.26267 23.2439C7.74213 22.0227 7.2192 20.7958 6.92489 19.4613L29.514 71.1424M5.63544 59.0415L3.56728 59.6111M5.63544 59.0415L3.5669 59.6097C2.44838 55.5471 2.79659 51.6625 3.59011 48.017C3.9858 46.1991 4.50034 44.4071 5.01219 42.6763C5.09246 42.4049 5.17253 42.1354 5.25214 41.8675C5.68666 40.405 6.10737 38.989 6.46972 37.565L6.47083 37.5607C7.27009 34.4471 7.84152 31.5103 7.64976 28.5628L3.56728 59.6111M29.514 71.1424C41.119 69.1943 50.3839 61.3104 54.6582 50.9971M29.514 71.1424L54.6582 50.9971M3.56728 59.6111C5.1584 65.4019 9.303 69.2647 14.2005 71.4287C19.0653 73.5781 24.7723 74.1104 29.8679 73.2582L29.8692 73.258C42.2397 71.1814 52.0971 62.7796 56.6399 51.8184L56.6402 51.8178C60.5771 42.3102 60.2415 31.2561 56.7975 21.6496L3.56728 59.6111ZM4.83007 19.9234L4.8294 19.9203C4.05563 16.3877 4.62989 13.344 6.24599 10.8577C7.82138 8.4341 10.2586 6.7345 12.892 5.55462C18.1268 3.20907 24.7784 2.62777 29.5053 2.92764C38.4005 3.48107 46.4065 6.69927 51.8184 12.9966L4.83007 19.9234ZM4.83007 19.9234C5.17143 21.4711 5.78481 22.9062 6.30356 24.1199M4.83007 19.9234L6.30356 24.1199M6.30356 24.1199C6.39184 24.3265 6.47737 24.5266 6.55836 24.7197M6.30356 24.1199L6.55836 24.7197M6.55836 24.7197C7.14906 26.1287 7.56701 27.3036 7.64969 28.5619L6.55836 24.7197ZM54.6582 50.9971C58.3594 42.0589 58.0728 31.5623 54.7776 22.372L54.6582 50.9971ZM56.7972 21.6488C55.6141 18.3413 53.9323 15.4517 51.8199 12.9983L56.7972 21.6488Z" fill="#171717" stroke="#EB4853" stroke-width="4.29032"/>
<g clip-path="url(#clip0_287_1720)">
<path d="M47.1121 17.053C42.9762 12.0381 36.7825 9.38077 29.6897 8.92123C22.1373 8.42174 8.69094 10.9192 10.9087 21.4685C11.4881 24.2058 13.1265 26.4235 13.3063 29.2806C13.4861 32.1577 12.9466 34.9549 12.2673 37.7121C10.7888 43.766 8.17147 49.7 9.82979 55.9736C12.1474 64.7647 21.8976 67.9015 29.8096 66.5229C39.5197 64.8247 47.2719 57.9516 50.8483 48.9607C53.9451 41.1686 53.7054 32.0179 50.9482 24.006C50.0291 21.3287 48.7304 19.011 47.1121 17.053Z" fill="#EB4853"/>
<path d="M47.1121 17.053C42.9762 12.0381 36.7825 9.38077 29.6897 8.92123C22.1373 8.42174 8.69094 10.9192 10.9087 21.4685C11.4881 24.2058 13.1265 26.4235 13.3063 29.2806C13.4861 32.1577 12.9466 34.9549 12.2673 37.7121C10.7888 43.766 8.17147 49.7 9.82979 55.9736C12.1474 64.7647 21.8976 67.9015 29.8096 66.5229C39.5197 64.8247 47.2719 57.9516 50.8483 48.9607C53.9451 41.1686 53.7054 32.0179 50.9482 24.006C50.0291 21.3287 48.7304 19.011 47.1121 17.053Z" fill="#EB4853"/>
<path d="M47.1121 17.053C42.9762 12.0381 36.7825 9.38077 29.6897 8.92123C22.1373 8.42174 8.69094 10.9192 10.9087 21.4685C11.4881 24.2058 13.1265 26.4235 13.3063 29.2806C13.4861 32.1577 12.9466 34.9549 12.2673 37.7121C10.7888 43.766 8.17147 49.7 9.82979 55.9736C12.1474 64.7647 21.8976 67.9015 29.8096 66.5229C39.5197 64.8247 47.2719 57.9516 50.8483 48.9607C53.9451 41.1686 53.7054 32.0179 50.9482 24.006C50.0291 21.3287 48.7304 19.011 47.1121 17.053Z" fill="#EB4853"/>
<path d="M17.4637 20C17.4637 20 46.6222 33.0101 16 46C16 46 25.5856 32.9899 17.4637 20Z" fill="#171717"/>
</g>
<defs>
<clipPath id="clip0_287_1720">
<rect width="43.7957" height="57.9813" fill="white" transform="translate(9.29028 8.86127)"/>
</clipPath>
</defs>
</svg>
