<svg width="140" height="184" viewBox="0 0 140 184" fill="none" xmlns="http://www.w3.org/2000/svg">
<g clip-path="url(#clip0_286_1518)" filter="url(#filter0_d_286_1518)">
<path d="M125.413 24.9766C117.579 12.5506 104.488 4.84155 88.7377 1.76623C71.9273 -1.49611 41.1325 0.249346 43.065 24.4571C43.5637 30.7325 46.6182 36.1766 46.1818 42.6182C45.7455 49.1013 43.7714 55.2104 41.4442 61.2156C36.3948 74.348 28.8312 86.8779 30.7429 101.423C33.4026 121.787 54.3481 131.595 72.4468 130.764C94.6598 129.745 114.005 116.592 124.603 97.4961C133.787 80.9143 135.844 60.3636 132 41.6416C130.712 35.3662 128.468 29.8182 125.413 24.9766Z" fill="#EB4853" stroke="#EB4853" stroke-width="0.5" stroke-miterlimit="10"/>
<path d="M111.034 90.8052C111.823 88.0416 112.613 85.2779 113.403 82.5143C113.486 82.2026 113.569 81.8494 113.403 81.5584C113.257 81.3091 112.987 81.1844 112.717 81.0805C106.13 78.4831 98.8779 78.2753 91.813 78.4C79.013 78.6286 66.2545 79.8961 53.4961 81.1636C55.4909 83.0961 57.3403 85.174 59.0857 87.3351C59.0857 87.3351 68.7273 102.816 67.3766 117.901C67.3766 117.901 95.3039 116.301 100.436 118.67L111.034 90.826V90.8052Z" fill="white"/>
<path d="M112.031 91.0754C112.468 89.5377 112.904 88 113.34 86.4624C113.714 85.1948 114.442 83.6156 114.504 82.2857C114.587 80.665 113.507 80.2286 112.135 79.7299C106.4 77.652 100.187 77.2779 94.1196 77.3195C80.5507 77.3818 67.0027 78.774 53.4962 80.1039C52.6443 80.187 52.0832 81.2052 52.7689 81.8702C56.7585 85.8182 59.3144 89.3714 61.5585 94.4208C64.8209 101.756 66.9404 109.797 66.317 117.881C66.2754 118.421 66.8365 118.94 67.3559 118.92C72.0313 118.649 76.7066 118.504 81.4027 118.421C84.9975 118.358 88.6131 118.358 92.2079 118.525C94.6598 118.629 97.5897 118.566 99.8962 119.543C100.561 119.834 101.164 119.605 101.413 118.92C104.946 109.631 108.478 100.364 112.01 91.0754C112.488 89.8286 110.473 89.2883 110.016 90.5143C106.483 99.8026 102.951 109.07 99.4183 118.358L100.935 117.735C98.691 116.779 96.0936 116.655 93.704 116.509C89.9845 116.281 86.265 116.26 82.5455 116.322C77.4962 116.384 72.4261 116.551 67.3767 116.842L68.4157 117.881C69.0391 109.631 66.878 101.465 63.6157 93.9429C62.6598 91.7403 61.6209 89.5169 60.3741 87.4598C58.7949 84.8208 56.4053 82.5559 54.2235 80.3948L53.4962 82.1611C65.0702 81.0182 76.6443 79.8753 88.2806 79.5013C93.8287 79.3143 99.4183 79.1896 104.925 80.0416C106.13 80.2286 107.335 80.4779 108.52 80.7896C109.185 80.9559 112.052 81.4338 112.405 82.2234C112.655 82.8052 111.533 85.2572 111.346 85.9221C110.909 87.4598 110.473 88.9974 110.036 90.5351C109.662 91.8234 111.678 92.3637 112.031 91.0961V91.0754Z" fill="white"/>
<path d="M112.946 165.964C115.231 167.584 117.288 169.496 119.075 171.657C119.366 172.031 119.678 172.468 119.574 172.925C119.408 173.59 118.535 173.735 117.829 173.735C109.496 173.735 101.143 173.735 92.8104 173.735C92.4364 173.735 92.0416 173.735 91.7091 173.548C91.1897 173.257 90.9819 172.634 90.8572 172.052C90.3377 169.912 90.1091 167.709 90.1507 165.506L88.426 122.597L113.631 116.114L112.946 165.943V165.964Z" fill="#EB4853"/>
<path d="M112.426 166.857C113.486 167.626 114.504 168.457 115.46 169.33C116.062 169.891 117.538 170.951 117.787 171.74C118.286 173.278 115.813 172.696 114.836 172.696C113.507 172.696 112.177 172.696 110.826 172.696C105.32 172.696 99.813 172.696 94.3066 172.696C92.6234 172.696 92.1455 172.405 91.6468 170.868C91.2105 169.517 91.2105 167.875 91.1897 166.462C91.1897 165.984 91.1897 165.548 91.1897 165.07C91.1481 163.844 91.0858 162.618 91.0442 161.371C90.6494 151.397 90.2338 141.423 89.839 131.429C89.7144 128.478 89.6105 125.527 89.4858 122.597L88.7169 123.595C97.1118 121.434 105.527 119.273 113.922 117.112L112.613 116.114C112.405 130.639 112.218 145.143 112.01 159.668L111.927 165.964C111.927 167.294 113.984 167.294 114.005 165.964C114.213 151.439 114.4 136.935 114.608 122.41L114.691 116.114C114.691 115.429 114.026 114.951 113.382 115.117C104.987 117.278 96.5715 119.439 88.1767 121.6C87.7403 121.704 87.3871 122.161 87.4079 122.597C87.7819 132.031 88.1767 141.465 88.5507 150.899C88.7377 155.429 88.9455 159.958 89.091 164.488C89.1741 166.816 89.1741 169.122 89.6728 171.408C90.0053 172.987 90.4208 174.338 92.1247 174.732C94.7637 175.314 98.1299 174.774 100.831 174.774C104.509 174.774 108.166 174.774 111.844 174.774C113.984 174.774 117.455 175.481 119.429 174.483C123.668 172.343 115.127 166.275 113.465 165.07C112.384 164.281 111.346 166.088 112.426 166.857Z" fill="#EB4853"/>
<path d="M116.062 92.8415L114.587 98.348C114.442 98.8675 114.753 99.4909 115.314 99.6363C115.875 99.7818 116.436 99.4701 116.603 98.9091L118.078 93.4026C118.223 92.8831 117.912 92.2597 117.351 92.1143C116.79 91.9688 116.229 92.2805 116.062 92.8415Z" fill="#333333"/>
<path d="M109.725 91.4286C109.558 91.3247 109.351 91.4909 109.309 91.6779C109.268 91.8649 109.351 92.052 109.371 92.239C109.475 92.9247 108.935 93.5688 108.291 93.839C107.647 94.1091 106.94 94.0675 106.234 94.026C102.784 93.839 99.335 93.6312 95.8649 93.4442C95.2831 93.4026 94.6805 93.3818 94.161 93.6104C93.6415 93.839 93.2052 94.4208 93.3506 94.9818C93.4961 95.5637 94.161 95.8338 94.7221 96.0416C96.4883 96.6442 98.2338 97.2468 100 97.8494C100 97.8494 92.8727 95.0026 92.4779 97.8494C92.4779 97.8494 90.3376 100.384 99.2312 103.044C100.706 103.481 96.1766 102.67 94.6389 102.483C94.2649 102.442 93.8286 102.421 93.5792 102.691C93.2052 103.107 93.5792 103.771 94.0364 104.125C95.2831 105.143 96.9247 105.538 98.3584 106.223C99.9792 106.992 101.392 108.156 102.951 109.07C104.509 109.984 106.338 110.649 108.083 110.255C108.083 110.255 112.26 128.914 116.27 132.384C116.27 132.384 128.218 140.696 132.852 126.005C132.852 126.005 138.649 114.223 126.66 88.4987L109.309 92.239" fill="#EB4853"/>
<path d="M109.725 90.3896C109.101 90.4312 108.603 90.639 108.374 91.2831C108.042 92.1766 108.644 91.9273 107.647 92.613C106.816 93.1948 105.922 92.9455 104.966 92.9039C103.096 92.8 101.226 92.6961 99.3559 92.5922C97.8806 92.5091 96.2183 92.1974 94.743 92.4052C93.2676 92.613 91.8339 93.9013 92.4988 95.5013C92.8521 96.3533 93.6832 96.7273 94.4936 97.039C96.2183 97.7039 98.0053 98.2442 99.7715 98.8468C101.06 99.2831 101.538 97.3299 100.333 96.852C98.6702 96.187 96.8417 95.6468 95.0339 95.5637C94.1196 95.5221 93.1014 95.6052 92.3741 96.2078C91.7507 96.7065 91.6676 97.1637 91.5845 97.4338C90.13 101.797 96.4053 102.712 99.065 104.083V102.296C99.7092 101.964 99.065 102.171 98.6079 102.068C98.0884 101.943 97.5482 101.901 97.0287 101.818C96.2806 101.694 95.491 101.507 94.7222 101.486C92.9559 101.423 91.8547 102.878 92.9975 104.457C93.6209 105.309 94.7014 105.787 95.6157 106.203C97.3819 106.971 98.9611 107.699 100.561 108.758C103.055 110.4 105.382 111.73 108.457 111.314L107.169 110.587C108.395 116.052 109.87 121.558 111.948 126.753C112.842 128.997 113.86 131.865 115.855 133.361C117.039 134.255 118.598 134.857 119.99 135.273C130.733 138.494 135.221 126.442 135.366 117.881C135.553 107.532 131.917 97.3091 127.636 88.0416C127.429 87.6052 126.888 87.4805 126.473 87.5637C120.696 88.8104 114.92 90.0572 109.122 91.3039C107.813 91.5948 108.374 93.5896 109.683 93.2987C115.46 92.052 121.236 90.8052 127.034 89.5585L125.87 89.0805C129.631 97.2468 132.79 106.078 133.268 115.158C133.455 118.608 133.268 122.119 132.125 125.403C131.626 126.857 130.317 130.078 128.717 131.636C126.743 133.569 124.104 134.088 121.465 133.507C120.031 133.174 118.307 132.613 117.122 131.678C115.585 130.473 114.712 127.979 113.985 126.192C111.907 120.997 110.431 115.491 109.205 110.026C109.081 109.423 108.457 109.236 107.917 109.299C105.091 109.673 102.868 107.719 100.665 106.307C98.9404 105.205 96.9663 104.686 95.2209 103.647C94.8884 103.46 94.5352 103.543 95.1585 103.605C95.4495 103.647 95.7404 103.688 96.0313 103.73C96.6546 103.834 97.2572 103.938 97.8806 104.021C98.5663 104.125 99.4806 104.416 100.146 104.083C100.81 103.751 100.831 102.649 100.146 102.296C98.2131 101.299 95.8858 101.132 94.1819 99.6572C93.8287 99.3662 93.5793 99.0753 93.3923 98.6805C93.3092 98.4935 93.4339 98.5974 93.4339 98.4727C93.4339 98.3896 93.1014 98.9507 93.4754 98.4104C93.7456 98.0364 93.517 97.9948 93.9534 97.7455C94.5559 97.3922 95.8027 97.7455 96.4053 97.8701C97.5689 98.0987 98.7118 98.4727 99.8131 98.8883L100.374 96.8935C99.2521 96.4987 98.1092 96.1247 96.9871 95.7299C96.3014 95.5013 94.2858 95.0857 95.678 94.5247C96.4884 94.1922 98.504 94.6701 99.4183 94.7325C100.707 94.8156 102.016 94.8779 103.304 94.9611C105.008 95.065 107.294 95.5844 108.894 94.7948C109.351 94.5662 109.808 94.213 110.078 93.7766C110.39 93.2779 110.203 92.3637 110.431 92.0312L109.538 92.5507H109.787C111.117 92.4468 111.117 90.3688 109.787 90.452L109.725 90.3896Z" fill="#EB4853"/>
<path d="M48.4468 55.7507C46.1195 55.8753 43.7922 55.9792 41.4857 56.1039C34.1091 54.8572 26.7117 53.7766 19.439 52.052C17.4026 51.574 15.2416 51.2624 13.1637 51.6156C10.1507 52.1143 9.4234 53.6935 7.47015 55.626C7.47015 55.626 -0.259718 63.7299 11.9169 71.2727L26.7533 80.9351C26.7533 80.9351 32.0104 89.4338 37.4338 88.4572L48.4676 55.7299L48.4468 55.7507Z" fill="#EB4853"/>
<path d="M48.4468 54.7117C45.4131 54.8572 42.4001 55.2104 39.3871 54.7117C36.3741 54.213 33.0702 53.6727 29.9118 53.1325C27.2936 52.6753 24.6546 52.1766 22.0572 51.5948C19.4598 51.013 16.6546 50.2234 13.8494 50.4935C9.44423 50.9091 5.28839 55.2727 4.2702 59.574C2.81566 65.6831 7.74033 69.8182 12.3325 72.8104L25.278 81.2468C25.5481 81.413 25.7975 81.6 26.0676 81.7663C26.5455 82.0572 25.6936 81.226 25.9637 81.6624C26.6079 82.6805 27.3559 83.6364 28.1455 84.5507C30.4312 87.2104 33.6728 90.0572 37.4338 89.5585C37.9118 89.4961 38.265 89.2676 38.4312 88.7896C42.1092 77.8805 45.7871 66.9714 49.465 56.0624C49.9014 54.7948 47.8858 54.2546 47.4702 55.5013C43.7923 66.4104 40.1144 77.3195 36.4364 88.2286L37.4338 87.4598C34.1507 87.8961 31.4286 85.2364 29.4754 82.9091C28.665 81.9325 28.0416 80.665 27.0235 79.9169C23.4702 77.2572 19.5014 75.013 15.7819 72.5818C11.8754 70.026 6.30657 67.2831 6.078 62.026C5.91176 57.974 9.88059 53.0286 13.8286 52.5714C16.6754 52.239 19.5014 53.1948 22.265 53.7766C25.0286 54.3585 28.0209 54.9195 30.9092 55.4182C33.7975 55.9169 36.7066 56.374 39.5949 56.8728C42.4832 57.3715 45.4754 56.9766 48.426 56.8312C49.7559 56.7689 49.7559 54.6909 48.426 54.7533L48.4468 54.7117Z" fill="#EB4853"/>
<path d="M105.257 112.249C107.003 117.797 108.54 123.429 111.138 128.644C111.74 129.849 113.527 128.79 112.925 127.605C110.41 122.535 108.956 117.07 107.252 111.709C106.857 110.442 104.841 110.982 105.257 112.27V112.249Z" fill="#333333"/>
<path d="M23.5324 60.1558C26.5246 61.2363 29.4129 62.5454 32.1766 64.1039C33.5064 64.8519 34.7947 65.6623 36.0623 66.5143C37.3298 67.3662 38.3688 68.2805 39.9064 68.3221C41.2986 68.3636 42.5038 68.0935 43.8753 68.5714C45.122 69.0078 46.2857 69.8597 47.0337 70.9402C48.6337 73.2675 48.3428 76.5091 46.5142 78.6078C45.6415 79.6052 47.096 81.0805 47.9895 80.0831C52.1038 75.3454 49.922 67.6363 43.5844 66.3272C42.0051 65.9948 40.0934 66.6597 38.722 65.8078C37.1844 64.8727 35.7506 63.7714 34.1921 62.8571C30.9921 60.9662 27.6051 59.4078 24.1142 58.161C22.8467 57.7039 22.3064 59.7195 23.5532 60.1558H23.5324Z" fill="#333333"/>
<path d="M97.8183 52.7169L97.5481 55.626C97.5273 55.8753 97.6728 56.187 97.8598 56.3532C98.0468 56.5403 98.3377 56.6649 98.5871 56.6649C98.8364 56.6649 99.1273 56.561 99.3144 56.3532C99.5014 56.1455 99.5845 55.9169 99.626 55.626L99.8962 52.7169C99.917 52.4675 99.7715 52.1558 99.5845 51.9896C99.3975 51.8026 99.1066 51.6779 98.8572 51.6779C98.6079 51.6779 98.317 51.7818 98.1299 51.9896C97.9429 52.1974 97.8598 52.426 97.8183 52.7169Z" fill="#333333"/>
<path d="M76.4365 50.1403C76.1663 52.1143 75.8962 54.0883 75.6261 56.0623C75.5637 56.5818 76.0209 57.2052 76.5404 57.5584C77.0806 57.9325 77.9533 58.2026 78.743 58.1818C79.5326 58.161 80.3845 57.974 80.9455 57.5584C81.5066 57.1429 81.7767 56.6441 81.8598 56.0623C82.13 54.0883 82.4001 52.1143 82.6702 50.1403C82.7326 49.6208 82.2754 48.9974 81.7559 48.6442C81.2157 48.2701 80.343 48 79.5533 48.0208C78.7637 48.0416 77.9118 48.2286 77.3507 48.6442C76.7897 49.0597 76.5196 49.5584 76.4365 50.1403Z" fill="#333333"/>
<g opacity="0.63">
<path d="M82.0675 52.4883C87.7403 52.4883 87.7403 43.6779 82.0675 43.6779C76.3948 43.6779 76.3948 52.4883 82.0675 52.4883Z" fill="white"/>
</g>
<path d="M123.543 113.288C123.543 110.899 122.587 109.049 121.61 106.992C120.821 105.33 119.99 103.668 119.158 102.026C118.036 99.8234 116.873 97.6208 115.626 95.4597C114.67 93.8182 113.694 92.0727 112.364 90.7013C111.429 89.7454 109.953 91.2208 110.888 92.1766C112.093 93.4234 112.966 95.0234 113.839 96.5195C115.044 98.5974 116.166 100.717 117.268 102.878C118.099 104.499 118.909 106.14 119.699 107.782C120.571 109.59 121.486 111.21 121.486 113.288C121.486 114.618 123.564 114.618 123.564 113.288H123.543Z" fill="#333333"/>
<path d="M82.7533 102.753C81.3403 103.148 79.9273 103.688 78.8468 104.706C78.2858 105.226 77.7871 105.953 77.6001 106.701C77.3299 107.823 77.9325 108.738 78.9715 109.132C80.4468 109.693 82.2338 109.465 83.6676 108.842C85.1014 108.218 86.7845 106.909 86.7637 105.184C86.7637 104.187 86.0988 103.356 85.2053 102.961C84.1663 102.504 83.065 102.691 82.0053 102.961C81.465 103.086 81.1325 103.709 81.278 104.249C81.4234 104.79 82.0053 105.101 82.5663 104.977C82.8572 104.914 83.1897 104.81 83.4598 104.79C83.5429 104.79 83.7092 104.79 83.8338 104.79C83.917 104.79 84.0001 104.79 84.0832 104.79C83.9585 104.79 84.1455 104.79 84.1871 104.81C84.2286 104.81 84.291 104.831 84.3325 104.852C84.1871 104.81 84.3325 104.852 84.3533 104.852C84.4157 104.893 84.4572 104.914 84.5196 104.956C84.5611 104.977 84.6442 105.081 84.5403 104.956C84.5819 104.997 84.6027 105.018 84.6442 105.06C84.5819 104.935 84.7481 105.184 84.6442 105.06C84.7066 105.164 84.6442 105.06 84.6442 105.018C84.6442 105.018 84.7066 105.268 84.6858 105.184C84.6858 105.06 84.6442 105.351 84.6858 105.226C84.7274 105.101 84.6442 105.33 84.6442 105.351C84.6027 105.455 84.6442 105.392 84.6442 105.351C84.6235 105.413 84.5819 105.496 84.5403 105.558C84.478 105.662 84.4364 105.725 84.3949 105.766C84.291 105.891 84.1663 106.016 84.0416 106.14C83.9793 106.203 83.8131 106.348 83.8131 106.327C83.8131 106.327 83.6261 106.452 83.5637 106.493C83.3144 106.66 83.065 106.784 82.8157 106.909C82.6286 106.992 82.7118 106.951 82.7741 106.93C82.7118 106.951 82.6287 106.971 82.5663 107.013C82.4416 107.055 82.317 107.096 82.2131 107.117C82.1092 107.138 81.9637 107.179 81.839 107.2C81.7767 107.2 81.6936 107.221 81.6312 107.242C81.465 107.283 81.6312 107.242 81.5274 107.242C81.2572 107.262 80.9871 107.283 80.717 107.262C80.5923 107.262 80.4676 107.262 80.3429 107.242C80.239 107.242 80.1351 107.2 80.0312 107.179C79.9066 107.158 79.8027 107.117 79.678 107.096C79.678 107.096 79.491 107.013 79.5118 106.992C79.5118 106.992 79.6157 107.117 79.6157 107.096C79.6364 107.138 79.6157 107.179 79.6157 107.221C79.6157 107.221 79.6157 107.055 79.6157 107.138C79.6157 107.221 79.678 106.971 79.678 106.951C79.6364 107.055 79.7611 106.805 79.7819 106.764C79.8235 106.701 79.8442 106.66 79.8858 106.597C79.8858 106.597 80.0105 106.41 79.9481 106.493C79.8858 106.577 79.9897 106.452 79.9897 106.452C80.0312 106.41 80.0728 106.348 80.1144 106.306C80.1975 106.203 80.3014 106.119 80.4053 106.036C80.4468 105.995 80.5092 105.953 80.5507 105.912C80.4261 106.016 80.5923 105.891 80.6131 105.87C80.7377 105.787 80.8624 105.704 80.9871 105.621C81.2364 105.475 81.4858 105.33 81.7559 105.226C81.7975 105.205 81.8598 105.184 81.9014 105.164C81.7559 105.226 81.9637 105.143 81.9845 105.122C82.1299 105.06 82.2754 105.018 82.4209 104.956C82.7118 104.852 83.0027 104.769 83.3144 104.686C83.8546 104.54 84.1871 103.958 84.0416 103.397C83.8962 102.836 83.3144 102.525 82.7533 102.67V102.753Z" fill="#333333"/>
<path d="M86.3481 104C85.226 100.592 83.8338 97.2675 82.1922 94.0883L81.5689 95.6052C83.8754 94.8364 86.1819 94.1714 88.5507 93.5896C89.839 93.2779 89.2987 91.2623 87.9896 91.5948C85.6416 92.1766 83.3143 92.8416 81.0078 93.6104C80.3429 93.8182 80.0728 94.5247 80.3845 95.1273C81.9429 98.161 83.2728 101.299 84.3325 104.54C84.7481 105.808 86.7637 105.268 86.3273 103.979L86.3481 104Z" fill="#333333"/>
<path d="M27.1273 57.1844L26.878 60.0727C26.8572 60.3221 27.0026 60.6338 27.1896 60.8C27.3767 60.9662 27.6676 61.1117 27.9169 61.1117C28.1663 61.1117 28.4572 61.0078 28.6442 60.8C28.8312 60.5922 28.9143 60.3636 28.9559 60.0727L29.2052 57.1844C29.226 56.9351 29.0806 56.6234 28.8935 56.4571C28.7065 56.2909 28.4156 56.1454 28.1663 56.1454C27.9169 56.1454 27.626 56.2493 27.439 56.4571C27.252 56.6649 27.1689 56.8935 27.1273 57.1844Z" fill="#333333"/>
<path d="M34.296 78.1299C35.0441 81.0597 37.2259 83.5948 40.0726 84.6338C41.3402 85.0909 42.8363 85.2156 44.1038 84.7169C45.7869 84.052 46.4311 82.5766 46.6597 80.8727C46.9298 78.8571 46.7012 76.7584 46.0155 74.8468C45.8285 74.3273 45.309 73.974 44.7272 74.1195C44.2077 74.2649 43.8129 74.8675 43.9999 75.4078C44.6025 77.1325 44.8311 78.9818 44.5817 80.7896C44.4986 81.4338 44.3324 82.161 43.8129 82.5351C43.335 82.8883 42.7116 82.9714 42.109 82.9506C39.2623 82.8468 36.935 80.1662 36.2908 77.5688C35.9584 76.2805 33.9635 76.8208 34.296 78.1299Z" fill="#333333"/>
<path d="M34.7739 86.8987C34.4622 87.065 34.1713 87.252 33.8389 87.3766L34.0882 87.2727C33.8804 87.3559 33.6518 87.439 33.4233 87.4598L33.6934 87.4182C33.1116 87.4805 32.4882 87.3559 31.9064 87.2935C31.657 87.2727 31.3454 87.439 31.1791 87.6052C30.9921 87.7922 30.8674 88.0831 30.8674 88.3325C30.8674 88.5818 30.9713 88.8727 31.1791 89.0598C31.3869 89.2676 31.6155 89.3299 31.9064 89.3714C32.5505 89.4338 33.1947 89.5585 33.8389 89.4753C34.5454 89.3715 35.1895 89.039 35.8129 88.6857C36.2908 88.4156 36.4778 87.7299 36.1869 87.2727C35.896 86.8156 35.2726 86.6078 34.7739 86.8987Z" fill="#333333"/>
<path d="M30.6597 80.9558C30.8051 82.6805 31.574 84.2805 32.8831 85.4234C33.548 86.0052 34.2753 86.4623 35.1064 86.774C35.4805 86.9195 35.8545 87.0234 36.2493 87.0857C36.4779 87.1273 36.7272 87.1481 36.9766 87.1688C37.0181 87.1688 37.496 87.1896 37.1428 87.1481C37.8285 87.252 38.3688 87.3143 39.0545 87.1481C40.6337 86.8156 42.0051 85.7766 43.1688 84.7169C44.1662 83.8026 42.6908 82.3481 41.6934 83.2416C40.7792 84.0935 39.7402 84.8623 38.5766 85.1117C38.5142 85.1117 38.1402 85.174 38.4311 85.1533C38.3688 85.1533 38.2856 85.1533 38.2233 85.1533C38.0986 85.1533 37.9532 85.1533 37.8077 85.1533C37.6207 85.1533 38.0571 85.2364 37.9116 85.1533C37.8701 85.1533 37.8285 85.1533 37.7869 85.1325C37.7454 85.1325 37.7038 85.1117 37.6831 85.0909C37.1428 84.987 36.6025 85.0286 36.0623 84.8623C35.522 84.6961 34.961 84.4052 34.5038 84.052C33.548 83.2831 32.8207 82.1403 32.7168 80.8935C32.6753 80.3325 32.2805 79.8546 31.6779 79.8546C31.1584 79.8546 30.5973 80.3325 30.6389 80.8935L30.6597 80.9558Z" fill="#333333"/>
<path d="M103.491 112.062C104.966 112.935 106.712 113.371 108.436 113.226C108.977 113.184 109.496 112.79 109.475 112.187C109.454 111.668 109.018 111.107 108.436 111.148C108.062 111.19 107.667 111.19 107.293 111.148C107.21 111.148 107.148 111.148 107.065 111.148C107.023 111.148 106.961 111.148 106.919 111.148C107.065 111.148 107.086 111.169 106.961 111.148C106.795 111.107 106.608 111.086 106.441 111.044C106.088 110.961 105.756 110.857 105.423 110.732C105.319 110.691 105.319 110.691 105.465 110.732C105.423 110.732 105.361 110.691 105.319 110.67C105.257 110.629 105.174 110.608 105.112 110.566C104.925 110.483 104.758 110.379 104.571 110.275C104.114 110.005 103.408 110.151 103.158 110.649C102.909 111.148 103.034 111.771 103.532 112.062H103.491Z" fill="#333333"/>
<path d="M93.9741 103.377C95.6156 103.855 97.278 104.166 98.9819 104.353C99.5221 104.416 100.042 103.834 100.021 103.314C100 102.712 99.5637 102.338 98.9819 102.275C98.7741 102.255 98.5663 102.234 98.3585 102.213C98.1299 102.192 98.5247 102.234 98.2754 102.213C98.1923 102.213 98.0884 102.192 98.0052 102.171C97.6104 102.109 97.2364 102.047 96.8416 101.964C96.0728 101.818 95.3039 101.61 94.5559 101.382C94.0364 101.236 93.3923 101.569 93.2676 102.109C93.1429 102.649 93.4338 103.231 93.9949 103.397L93.9741 103.377Z" fill="#333333"/>
<path d="M93.3922 96.9766C95.4286 98.1195 97.652 98.9506 99.9377 99.387C100.478 99.4909 101.081 99.2416 101.226 98.6597C101.351 98.1403 101.081 97.4961 100.499 97.3714C98.2961 96.9558 96.3429 96.2286 94.452 95.1688C93.974 94.8987 93.2883 95.0441 93.039 95.5428C92.7896 96.0416 92.9143 96.6857 93.413 96.9558L93.3922 96.9766Z" fill="#333333"/>
<path d="M56.7791 167.003C54.4934 168.623 52.4363 170.535 50.6493 172.696C50.3584 173.07 50.0467 173.506 50.1506 173.964C50.3168 174.629 51.1895 174.774 51.896 174.774C60.2285 174.774 68.5817 174.774 76.9142 174.774C77.2882 174.774 77.683 174.774 78.0155 174.587C78.535 174.296 78.7428 173.673 78.8674 173.091C79.3869 170.951 79.6155 168.748 79.5739 166.545L81.2986 123.636L56.1765 122.473L56.7791 166.982V167.003Z" fill="#EB4853"/>
<path d="M56.2597 166.109C54.4104 167.46 47.4493 172.073 49.5065 174.899C50.4208 176.166 52.5818 175.813 53.8909 175.813C57.2364 175.813 60.561 175.813 63.9065 175.813C66.8987 175.813 69.9117 175.813 72.9039 175.813C74.7325 175.813 77.787 176.52 79.1584 174.94C80.9247 172.925 80.5506 168.665 80.613 166.171C80.8831 155.907 81.4441 145.642 81.8597 135.397C82.026 131.491 82.1714 127.564 82.3377 123.657C82.3584 123.075 81.839 122.639 81.2987 122.618C72.9247 122.223 64.5506 121.849 56.1766 121.455C55.6156 121.434 55.1377 121.953 55.1377 122.494C55.3247 135.481 55.4909 148.468 55.6779 161.434C55.6987 163.283 55.7195 165.133 55.761 166.982C55.761 168.312 57.8597 168.312 57.839 166.982C57.6519 153.995 57.4857 141.008 57.2987 128.042C57.2779 126.192 57.2571 124.343 57.2156 122.494L56.1766 123.533C64.5506 123.927 72.9247 124.301 81.2987 124.696L80.2597 123.657C79.948 131.242 79.6571 138.826 79.3454 146.41L78.7636 161.081C78.6182 164.468 78.7636 168.145 78.161 171.449C77.787 173.527 76.8727 173.735 74.9195 173.735C73.4234 173.735 71.9273 173.735 70.4104 173.735C67.4182 173.735 64.4052 173.735 61.413 173.735C59.9169 173.735 58.4208 173.735 56.9039 173.735C55.8649 173.735 53.3091 174.192 52.3948 173.735H51.8961C51.7091 173.195 51.8338 172.779 52.2078 172.468C52.5195 171.907 53.1844 171.408 53.6623 170.951C54.8052 169.829 56.0312 168.831 57.2987 167.896C58.3584 167.107 57.3402 165.32 56.2597 166.109Z" fill="#EB4853"/>
<path d="M56.426 63.6468C52.1247 66.7221 47.8027 69.7974 43.5014 72.8727L41.652 74.2026C40.9663 74.7013 40.6338 75.5533 41.091 76.3429C41.4858 77.0286 42.5247 77.4026 43.2312 76.9039C47.5325 73.8286 51.8546 70.7533 56.1559 67.6779L58.0053 66.3481C58.691 65.8494 59.0234 64.9974 58.5663 64.2078C58.1715 63.5221 57.1325 63.1481 56.426 63.6468Z" fill="white"/>
<path d="M39.1169 74.6182C39.4494 74.8883 39.7403 75.1793 40.0312 75.4909C40.0935 75.5741 40.1766 75.6572 40.239 75.7195C40.2805 75.7611 40.3221 75.8026 40.3429 75.865C40.426 75.9689 40.3429 75.865 40.3013 75.8234C40.426 76.0104 40.5714 76.1767 40.6753 76.3637C40.9039 76.7169 41.1117 77.0909 41.2779 77.465C41.2779 77.5065 41.3195 77.5481 41.3403 77.5896C41.4026 77.7143 41.2572 77.3819 41.3403 77.5689C41.3818 77.6728 41.4234 77.7559 41.4442 77.8598C41.5273 78.0676 41.5896 78.2754 41.652 78.5039C41.7974 79.0234 42.4 79.3974 42.9403 79.2312C43.4805 79.065 43.813 78.5247 43.6676 77.9429C43.1481 76.0728 42.0676 74.3689 40.5714 73.1221C40.3429 72.9351 40.1351 72.8104 39.8442 72.8104C39.5948 72.8104 39.2831 72.9143 39.1169 73.1221C38.7637 73.4961 38.6598 74.2234 39.1169 74.5974V74.6182Z" fill="#333333"/>
<path d="M88.987 62.3584C86.8467 61.5896 83.9792 62.0675 82.6078 64C82.0259 64.8104 81.7558 65.9325 82.0675 66.8883C82.4 67.9273 83.2311 68.613 84.2285 68.9662C85.2259 69.3195 86.2649 69.361 87.3039 69.4026C88.5091 69.4649 89.7143 69.6104 90.9195 69.5896C92 69.5688 93.122 69.2987 93.8701 68.4675C94.6182 67.6364 94.7636 66.5351 94.5143 65.4961C93.9117 62.8987 91.0649 62.0883 88.7169 62.2961C88.1558 62.3377 87.6779 62.7325 87.6779 63.3351C87.6779 63.8545 88.1558 64.4156 88.7169 64.374C89.9636 64.2494 91.7091 64.3325 92.3532 65.5792C92.5818 66.0156 92.6233 66.5558 92.4363 66.9091C92.2078 67.3662 91.5428 67.4909 90.9818 67.5117C90.0883 67.5325 89.1948 67.4494 88.3221 67.387C87.4909 67.3455 86.6389 67.3455 85.8285 67.2208C85.2883 67.1377 84.6233 66.9922 84.2701 66.6182C84.1246 66.452 84.0415 66.2857 84.0207 66.1195C84 65.9532 84.0207 65.7039 84.1454 65.4753C84.8104 64.0208 87.0337 63.8545 88.4467 64.3532C88.9662 64.5403 89.5896 64.1455 89.735 63.626C89.9013 63.0442 89.548 62.5455 89.0078 62.3377L88.987 62.3584Z" fill="#333333"/>
<path d="M88.2391 54.1714C88.1559 60.6338 84.1456 66.5766 77.9949 68.7792C71.8443 70.9818 64.8417 69.0494 60.665 64C56.4884 58.9507 56.052 51.7403 59.3559 46.1922C62.6598 40.6442 69.2261 37.6727 75.543 38.8779C82.878 40.2909 88.1144 46.7325 88.2183 54.1507C88.2391 56.1455 91.3559 56.1662 91.3352 54.1507C91.2313 46.4 86.4936 39.4597 79.2209 36.6961C71.9482 33.9325 63.2624 36.2182 58.2962 42.2857C53.33 48.3533 52.6443 56.9766 56.6546 63.6883C60.665 70.4 68.4988 73.8494 76.1456 72.4779C84.9352 70.8987 91.2105 62.961 91.3352 54.1507C91.3559 52.1351 88.2391 52.1351 88.2183 54.1507L88.2391 54.1714Z" fill="white"/>
</g>
<defs>
<filter id="filter0_d_286_1518" x="0" y="0" width="139.345" height="184" filterUnits="userSpaceOnUse" color-interpolation-filters="sRGB">
<feFlood flood-opacity="0" result="BackgroundImageFix"/>
<feColorMatrix in="SourceAlpha" type="matrix" values="0 0 0 0 0 0 0 0 0 0 0 0 0 0 0 0 0 0 127 0" result="hardAlpha"/>
<feOffset dy="4"/>
<feGaussianBlur stdDeviation="2"/>
<feComposite in2="hardAlpha" operator="out"/>
<feColorMatrix type="matrix" values="0 0 0 0 0 0 0 0 0 0 0 0 0 0 0 0 0 0 0.25 0"/>
<feBlend mode="normal" in2="BackgroundImageFix" result="effect1_dropShadow_286_1518"/>
<feBlend mode="normal" in="SourceGraphic" in2="effect1_dropShadow_286_1518" result="shape"/>
</filter>
<clipPath id="clip0_286_1518">
<rect width="131.345" height="176" fill="white" transform="translate(4)"/>
</clipPath>
</defs>
</svg>
