<svg width="44" height="42" viewBox="0 0 44 42" fill="none" xmlns="http://www.w3.org/2000/svg">
<g clip-path="url(#clip0_286_1669)">
<path d="M33.5606 12.2317C33.0033 8.58392 30.7641 5.48491 27.452 3.20115C23.9161 0.760613 16.6671 -1.92555 14.6882 3.8544C14.1778 5.34903 14.3288 6.9116 13.5894 8.35397C12.8447 9.8068 11.7771 11.014 10.6419 12.1689C8.16824 14.6931 5.17907 16.8253 4.16358 20.3685C2.74191 25.328 6.57471 29.6969 10.8189 31.3222C16.0265 33.3185 21.7861 32.2263 26.1293 28.8764C29.8944 25.976 32.4253 21.4399 33.4095 16.7365C33.7376 15.1582 33.7793 13.6531 33.5606 12.2317Z" fill="#EB4853"/>
<path d="M23.2234 10.7213C23.4525 11.5575 24.5826 11.8711 25.2231 11.3067C25.3273 11.2178 25.3221 11.0297 25.2231 10.9356C25.1138 10.8363 24.9627 10.8363 24.8534 10.9356C24.8273 10.9565 24.8169 10.967 24.8534 10.9408C24.8378 10.9513 24.8169 10.967 24.8013 10.9774C24.77 10.9983 24.7388 11.0088 24.7076 11.0297C24.6919 11.0401 24.6971 11.0297 24.7284 11.0192C24.718 11.0192 24.7076 11.0297 24.6971 11.0297C24.6815 11.0349 24.6659 11.0401 24.6451 11.0454C24.6347 11.0454 24.5461 11.0767 24.5409 11.0663C24.5409 11.0715 24.6034 11.061 24.5409 11.0663C24.5253 11.0663 24.5045 11.0663 24.4888 11.0663C24.4524 11.0663 24.4159 11.0663 24.3795 11.0663C24.3691 11.0663 24.3326 11.0663 24.3274 11.0663C24.3691 11.0715 24.3743 11.0715 24.343 11.0663H24.3274C24.291 11.0558 24.2493 11.0454 24.2128 11.0349C24.1972 11.0349 24.1764 11.0245 24.1608 11.0192C24.1556 11.0192 24.0931 10.9931 24.1347 11.0088C24.1764 11.0245 24.1139 10.9983 24.1087 10.9983C24.0879 10.9879 24.0722 10.9774 24.0514 10.967C24.0202 10.9513 23.9889 10.9304 23.9577 10.9095C23.916 10.8834 23.9941 10.9461 23.9577 10.9095C23.942 10.899 23.9316 10.8886 23.916 10.8729C23.89 10.8468 23.8639 10.8259 23.8431 10.7945C23.8171 10.7579 23.8223 10.7632 23.8431 10.7945C23.8327 10.7788 23.8223 10.7632 23.8119 10.7527C23.791 10.7213 23.7754 10.69 23.7598 10.6586C23.7337 10.6116 23.7754 10.7109 23.7598 10.6482C23.7546 10.6273 23.7494 10.6064 23.7389 10.5855C23.7025 10.4548 23.5515 10.3608 23.4161 10.4026C23.2807 10.4444 23.1974 10.5802 23.2338 10.7266L23.2234 10.7213Z" fill="#333333"/>
<path d="M26.671 11.8345C26.8793 12.2003 27.1189 12.5922 27.5251 12.7595C27.7177 12.8431 27.9208 12.864 28.1291 12.8274C28.3375 12.7908 28.5145 12.6654 28.6395 12.4982C28.7228 12.3884 28.6603 12.2003 28.5458 12.1428C28.4104 12.0696 28.275 12.1167 28.1916 12.2369C28.2281 12.1846 28.1656 12.2526 28.1552 12.2682C28.1916 12.2264 28.1656 12.263 28.1448 12.2682C28.1292 12.2787 28.1135 12.2839 28.1031 12.2891C28.0823 12.3048 28.15 12.2735 28.1031 12.2891C28.0875 12.2891 28.0719 12.2996 28.0562 12.3048C28.0406 12.31 28.025 12.31 28.0094 12.3153C27.9469 12.3309 28.0667 12.3153 27.999 12.3153C27.9677 12.3153 27.9313 12.3153 27.9 12.3153C27.8896 12.3153 27.8323 12.3153 27.874 12.3153C27.9156 12.3153 27.8584 12.3153 27.8479 12.3153C27.8167 12.31 27.7802 12.2996 27.749 12.2891C27.7386 12.2891 27.6813 12.2578 27.7334 12.2891C27.7177 12.2839 27.7021 12.2735 27.6865 12.2682C27.6553 12.2526 27.624 12.2317 27.5928 12.2108C27.5771 12.2003 27.5511 12.1794 27.5771 12.2003C27.5615 12.1898 27.5459 12.1742 27.5303 12.1585C27.499 12.1271 27.4678 12.0958 27.4365 12.0644C27.4209 12.0487 27.4105 12.0331 27.3949 12.0174C27.3897 12.0122 27.3532 11.9704 27.3845 12.0017C27.2803 11.8658 27.197 11.7143 27.1085 11.568C27.0408 11.4478 26.8689 11.4007 26.7543 11.4739C26.6398 11.5471 26.5877 11.7038 26.6606 11.8293L26.671 11.8345Z" fill="#333333"/>
<path d="M23.8953 13.188C23.4422 12.8797 22.8798 12.4721 22.3018 12.6236C21.7914 12.7543 21.4321 13.2142 21.3592 13.7211C21.1769 15.0171 22.4632 15.869 23.5151 16.2609C24.6973 16.6999 26.0617 16.6947 27.2386 16.2296C27.7437 16.0257 28.2749 15.7331 28.504 15.2105C28.6863 14.7924 28.629 14.2541 28.2853 13.9353C27.7906 13.4755 26.8168 13.6793 26.2179 13.7106C25.7752 13.7315 25.3118 13.7629 24.8795 13.6688C24.515 13.5904 24.2026 13.3971 23.9005 13.1933C23.6193 13.0051 23.3589 13.4598 23.6401 13.6427C24.0151 13.8935 24.4056 14.1183 24.8587 14.1914C25.3743 14.2803 25.895 14.2489 26.4106 14.2175C26.6814 14.2019 26.947 14.1862 27.2178 14.1862C27.4573 14.1862 27.8062 14.1496 27.9781 14.3534C28.3009 14.7297 27.9416 15.2314 27.624 15.4509C26.1398 16.4752 23.4579 16.2348 22.2497 14.8603C21.8852 14.4475 21.6664 13.7159 22.1403 13.2925C22.6142 12.8692 23.2183 13.3553 23.6401 13.6375C23.9161 13.8256 24.1817 13.3709 23.9005 13.188H23.8953Z" fill="#333333"/>
<path d="M22.1195 14.7663C23.5151 14.5311 24.9785 15.0537 25.9367 16.0885C26.1658 16.3341 26.5303 15.963 26.3064 15.7174C25.2128 14.5363 23.562 13.9928 21.9841 14.2594C21.656 14.3169 21.7966 14.8186 22.1247 14.7611L22.1195 14.7663Z" fill="#333333"/>
<path d="M22.932 13.7995C22.8226 13.6897 22.7497 13.58 22.6872 13.4441C22.583 13.2194 22.281 13.3187 22.2133 13.5068C22.1248 13.7368 21.9633 13.8831 21.7498 13.9876L22.13 14.2803C22.1612 14.1548 22.2133 14.066 22.3175 13.9876C22.3539 13.9615 22.5466 13.8465 22.583 13.8779L22.5049 13.695C22.5883 13.6166 22.5883 13.58 22.5049 13.5904C22.4945 13.7629 22.5362 13.8099 22.6299 13.7315C22.6976 13.7315 22.7705 13.695 22.8486 13.7054C23.0361 13.7211 23.1819 13.8256 23.2705 13.9928L23.4944 13.6009C23.2184 13.5904 23.0309 13.4911 22.8226 13.3187C22.7028 13.2194 22.583 13.1096 22.4268 13.0574C22.1352 12.9633 21.729 13.1096 21.6978 13.4546C21.6561 13.8622 22.0987 14.1078 22.4112 14.2437C22.807 14.4214 23.2392 14.4893 23.6714 14.4475C23.9058 14.4214 24.0568 14.0921 23.8016 13.9615C23.7131 13.9144 23.6558 13.8726 23.5881 13.7995L23.4059 14.2437C23.7183 14.2646 24.0308 14.2855 24.3484 14.3064C24.6036 14.3221 24.7078 13.9354 24.4786 13.8204C24.0724 13.6166 23.6871 13.3814 23.3329 13.1044C23.1455 12.9581 23.0934 12.9685 22.8538 12.9894C22.6143 13.0104 22.4112 12.9738 22.1977 12.9058C21.9113 12.8118 21.7498 13.2351 21.9946 13.3814C22.6091 13.7524 23.2236 14.1287 23.8381 14.4998C24.1245 14.6722 24.4057 14.8604 24.6973 15.0224C24.9369 15.153 25.1764 15.2105 25.4264 15.0694C25.5826 14.9805 25.5826 14.782 25.4785 14.6565C25.3483 14.4998 25.2233 14.343 25.0931 14.1862L24.8379 14.6252C25.2962 14.8029 25.7284 15.0276 26.1398 15.2889L26.4002 14.8394L25.114 14.2019L24.9109 14.6774C25.2962 14.7611 25.442 15.268 25.6243 15.5659C25.843 15.9265 26.1607 16.2243 26.6085 16.1668C26.8689 16.1355 27.0928 15.9839 27.2699 15.801C27.4261 15.6442 27.6917 15.3882 27.6448 15.1426C27.5928 14.8656 27.2907 14.8185 27.0564 14.7767C26.6814 14.714 26.3013 14.6827 25.9211 14.6774L26.1034 14.7558C26.1034 14.7558 25.9003 14.5834 25.9003 14.6409C25.9003 14.6409 26.1294 14.667 26.1555 14.667C26.3794 14.6931 26.6085 14.7192 26.8325 14.7402L26.6085 14.6095C26.5773 14.5416 26.4992 14.6304 26.4367 14.6722C26.3742 14.714 26.3065 14.7611 26.2544 14.8185C26.1659 14.9178 26.1086 15.038 26.1138 15.1739C26.1138 15.2941 26.1711 15.3986 26.2544 15.4875C26.2961 15.5293 26.3534 15.5711 26.4054 15.5972C26.4783 15.639 26.4888 15.707 26.4836 15.5972L26.5617 15.4143C26.4888 15.4875 26.0149 14.5311 25.9732 14.4579C25.7961 14.1653 25.5566 13.9301 25.2181 13.8517C24.9786 13.7942 24.7598 14.1078 24.9629 14.2907C25.317 14.6043 25.7545 14.6983 26.218 14.6879C26.52 14.6827 26.822 14.6356 27.1241 14.6513C27.2907 14.6618 27.3845 14.714 27.2178 14.8447C27.1189 14.9231 26.9366 14.9178 26.8168 14.9231L27.0668 15.2523C27.2022 14.8708 27.6188 14.667 28.0042 14.7715L27.8219 14.4475C27.7125 14.7192 27.5563 14.9492 27.3532 15.1582C27.2334 15.2784 27.2647 15.477 27.4053 15.5711C27.5824 15.6808 27.7802 15.6547 27.9313 15.5084C28.1708 15.2732 27.8011 14.9022 27.5615 15.1373L27.6709 15.1217L27.723 15.5345C27.9938 15.2575 28.1864 14.9492 28.327 14.5938C28.3791 14.4632 28.2698 14.3064 28.1448 14.2698C27.473 14.0974 26.8012 14.4684 26.5669 15.1164C26.5096 15.268 26.6554 15.4561 26.8168 15.4457C27.1345 15.4248 27.4938 15.3777 27.6969 15.1007C27.8636 14.8656 27.8896 14.5207 27.6709 14.3064C27.4053 14.0451 26.9106 14.1235 26.5773 14.1444C26.1555 14.1705 25.6712 14.2176 25.3327 13.9197L25.0775 14.3587C25.8222 14.5416 25.718 16.0362 26.6346 15.9421C26.9522 15.9108 27.1189 15.5815 26.9054 15.3255C26.8533 15.2628 26.7804 15.2366 26.7231 15.1791L26.671 15.1478C26.6033 15.1112 26.6137 15.106 26.7023 15.1269C26.8481 15.038 26.9939 14.944 27.072 14.7872C27.1397 14.6513 27.1553 14.4841 27.0616 14.3534C26.947 14.1862 26.7127 14.2123 26.5304 14.1914C26.2075 14.1548 25.6868 13.9876 25.4785 14.3482C25.317 14.6304 25.4941 15.0015 25.7649 15.1478C25.942 15.2471 26.1971 15.2053 26.395 15.2209C26.5304 15.2314 26.6658 15.2471 26.796 15.2628C26.8689 15.2732 27.1605 15.362 27.1345 15.2837L27.1605 15.0798C27.046 15.3255 26.7023 15.7488 26.3846 15.6338C26.1815 15.5606 26.0669 15.3046 25.9732 15.1321C25.7545 14.7297 25.5358 14.275 25.0462 14.1705C24.7755 14.113 24.5671 14.5102 24.8432 14.6461L26.1294 15.2837C26.4263 15.43 26.6762 15.0119 26.3898 14.8342C25.9368 14.5468 25.4629 14.3116 24.9629 14.1183C24.6973 14.0137 24.5619 14.3796 24.7078 14.5572C24.8379 14.714 24.9629 14.8708 25.0931 15.0276L25.1452 14.6147C24.989 14.7036 24.5307 14.3221 24.3901 14.2332L23.6714 13.7995C23.1923 13.5068 22.7132 13.2194 22.2341 12.9267L22.031 13.4023C22.3852 13.5173 22.7341 13.5329 23.1038 13.465L22.8486 13.3971C23.2652 13.7368 23.7079 14.0242 24.187 14.2646L24.3172 13.7786C24.0047 13.7577 23.6923 13.7368 23.3746 13.7159C23.1351 13.7002 23.0517 14.0033 23.1923 14.1601C23.2861 14.2646 23.385 14.343 23.51 14.4057L23.6402 13.9197C23.359 13.951 23.0882 13.9354 22.8174 13.8517C22.6768 13.8099 22.5466 13.7524 22.4216 13.6741C22.3747 13.6479 22.1144 13.5016 22.2289 13.5539C22.4268 13.6479 22.5726 13.8308 22.7705 13.9406C22.984 14.0608 23.2184 14.1078 23.4631 14.1183C23.6714 14.1235 23.7756 13.8935 23.6871 13.7263C23.4683 13.2978 22.9528 13.0887 22.4945 13.2142C22.3018 13.2664 22.0571 13.4023 22.0102 13.6166C21.9581 13.8465 22.1248 14.0346 22.3383 14.0921C22.5362 14.1444 22.7861 14.1078 22.9215 13.9458C23.0569 13.7838 23.0101 13.5277 22.8174 13.4232C22.3175 13.1462 21.7186 13.6845 21.5988 14.1392C21.5363 14.3743 21.7811 14.5311 21.979 14.4318C22.3227 14.2698 22.5466 13.9928 22.682 13.6427L22.2081 13.7054C22.2914 13.8831 22.3956 14.0294 22.5362 14.1705C22.7757 14.4057 23.1403 14.0399 22.9059 13.7995H22.932Z" fill="#333333"/>
<path d="M14.4955 18.9837C14.3549 21.0479 12.2667 22.5373 12.5427 24.6957C12.7614 26.3889 14.5059 27.1885 15.9589 27.5909C17.8076 28.1082 19.7917 28.1291 21.656 27.6745C23.161 27.3087 25.3534 26.5979 25.77 24.8838C25.7961 24.7793 25.7544 24.6382 25.6502 24.5911C24.7441 24.1835 23.8797 24.4605 23.0048 24.8315C22.7027 24.9622 22.8329 25.4639 23.1454 25.3332C23.8484 25.0406 24.64 24.7061 25.3899 25.0406L25.2701 24.7479C24.8743 26.3628 22.5101 26.9794 21.104 27.2669C19.3855 27.617 17.5784 27.5386 15.8964 27.0317C14.2143 26.5248 12.5687 25.4221 13.204 23.3839C13.6831 21.8423 14.9069 20.656 15.0163 18.9889C15.0371 18.6544 14.5164 18.6544 14.4955 18.9889V18.9837Z" fill="#333333"/>
<path d="M19.3023 20.5723C18.7711 21.142 18.2868 21.7534 17.8546 22.3962C17.7764 22.5112 17.8337 22.6836 17.9483 22.7516C18.0785 22.8247 18.2243 22.7777 18.3024 22.6575C18.7086 22.0461 19.1669 21.4764 19.6668 20.9381C19.7605 20.8336 19.771 20.6716 19.6668 20.5671C19.5627 20.4626 19.396 20.4626 19.2971 20.5671L19.3023 20.5723Z" fill="#333333"/>
<path d="M16.4744 22.1349C17.6825 22.7568 19.0417 22.8979 20.3749 22.7568C21.0675 22.6836 21.7497 22.5478 22.4267 22.391C22.7808 22.3074 23.1297 22.2185 23.4838 22.1349C23.7025 22.0827 23.9369 22.0043 24.1608 22.0095C24.2806 22.0095 24.3847 22.0356 24.4837 22.0931C24.666 22.2029 24.6764 22.3283 24.5097 22.4694C24.1816 22.506 24.1764 23.0286 24.5097 22.992C25.119 22.9293 25.3482 22.2238 24.9211 21.7848C24.3275 21.1733 23.2703 21.6489 22.5829 21.8109C20.6665 22.2708 18.5626 22.6262 16.7296 21.6803C16.4327 21.5287 16.1671 21.9781 16.4692 22.1297L16.4744 22.1349Z" fill="#333333"/>
<path d="M22.8329 23.3944L24.1296 23.1801L24.765 23.0756C24.9004 23.0547 25.1347 22.9763 25.2597 23.0286C25.4211 23.0965 25.442 23.3735 25.3743 23.5302C25.2441 23.8281 24.8847 23.9901 24.6191 24.1312C24.3223 24.288 24.5827 24.7375 24.8795 24.5807C25.2493 24.3873 25.6555 24.1574 25.8377 23.7654C25.994 23.4257 25.9575 22.9606 25.6763 22.6941C25.5253 22.5478 25.3274 22.485 25.1191 22.4955C24.8431 22.5112 24.5671 22.5791 24.2963 22.6262L22.6975 22.8927C22.5569 22.9136 22.4788 23.086 22.5153 23.2167C22.5569 23.363 22.6975 23.4205 22.8381 23.3996L22.8329 23.3944Z" fill="#333333"/>
<path d="M29.7904 19.8251C31.9932 20.5097 36.9977 19.7571 37.581 17.5465C37.8413 16.5588 37.1123 15.5815 37.508 14.6409C37.6382 14.3221 37.8934 14.0765 38.1694 13.8674C38.8047 13.3814 39.5807 13.0731 40.3774 12.9947C40.5805 12.9738 40.8045 12.9738 40.9659 13.094C41.294 13.3344 41.1534 13.8883 40.8409 14.1549C40.5285 14.4214 40.1119 14.5259 39.7786 14.7558C39.4453 14.9858 39.2057 15.477 39.4557 15.801C40.4295 15.3202 41.6481 15.3882 42.5594 15.9683C42.8563 16.1564 43.1166 16.6111 42.8302 16.8097C42.7417 16.8724 42.6271 16.8776 42.5178 16.8724C42.0907 16.8567 41.6689 16.7104 41.2419 16.7731C40.8149 16.8358 40.3931 17.2434 40.5441 17.6458C40.5441 17.6615 41.5596 17.8758 41.6741 17.928C42.0439 18.0953 42.5438 18.367 42.6584 18.7485C42.7521 19.0516 40.617 18.9837 40.3722 18.9784C40.867 18.9941 40.466 20.1804 40.3774 20.4208C40.0598 21.2831 39.414 21.8057 38.5756 22.1611C35.6281 23.4153 32.3681 23.9954 29.2019 23.3578" fill="#EB4853"/>
<path d="M29.7227 20.0811C30.9673 20.4469 32.3369 20.3842 33.6024 20.1804C34.8678 19.9766 36.3155 19.5742 37.2373 18.623C37.6279 18.2206 37.8778 17.7242 37.8987 17.1545C37.9403 15.9996 37.1904 14.9596 38.3309 14.0712C38.8204 13.6897 39.4037 13.4336 40.0077 13.3082C40.1952 13.2664 40.3827 13.2455 40.5754 13.2403L40.8097 13.7733C40.7837 14.0242 40.19 14.2227 40.0025 14.322C39.3984 14.6408 38.8569 15.2157 39.2318 15.9264C39.3047 16.0623 39.4661 16.078 39.5859 16.0205C40.2056 15.7383 40.893 15.6599 41.5596 15.8219C41.8148 15.8846 42.3512 16.0153 42.497 16.2452C42.7157 16.5953 42.3876 16.6006 42.1585 16.5744C42.0283 16.5588 41.9033 16.5326 41.7731 16.5222C41.0024 16.4438 40.1379 16.8253 40.2942 17.7189C40.3098 17.8078 40.3931 17.8757 40.4764 17.9018C40.7681 18.0011 41.0857 18.0325 41.3826 18.1161C41.6013 18.1788 41.794 18.2624 41.9866 18.3879C42.1272 18.4767 42.2418 18.6701 42.3772 18.7432C42.3303 18.7171 42.5699 18.6962 42.3772 18.6492C42.0856 18.5812 41.57 18.7275 41.2524 18.7275C40.9607 18.7275 40.6743 18.7275 40.3827 18.7171C40.0911 18.7066 40.0234 19.1717 40.315 19.2292C40.5025 19.2658 40.2317 20.0863 40.19 20.2065C40.0442 20.6246 39.8255 20.9904 39.5026 21.2935C38.6954 22.0356 37.4508 22.3596 36.4301 22.6627C34.1075 23.3525 31.6704 23.5616 29.2905 23.1017C28.9624 23.039 28.8218 23.5407 29.1499 23.6034C32.2119 24.1939 35.3469 23.734 38.2267 22.5843C39.2891 22.161 40.2213 21.6071 40.6431 20.4835C40.8149 20.0288 41.2003 18.8739 40.4556 18.7223L40.3879 19.2345C40.8305 19.2449 41.2784 19.2501 41.721 19.2345C42.0179 19.2188 42.5438 19.2501 42.7834 19.0359C43.575 18.3408 41.5284 17.604 41.0805 17.4994C40.9816 17.4785 40.8305 17.4733 40.742 17.421C40.4035 17.2172 41.3773 17.0186 41.4659 17.0134C41.8721 16.9768 42.2835 17.1859 42.6949 17.1179C43.1636 17.0395 43.3354 16.6215 43.1323 16.2034C42.8615 15.6338 42.0856 15.3725 41.518 15.2679C40.7628 15.1268 40.0338 15.247 39.3412 15.5606L39.6953 15.6547C39.336 14.9701 40.716 14.6199 41.0388 14.322C41.2732 14.1078 41.445 13.7785 41.4242 13.4493C41.3773 12.6236 40.4868 12.6706 39.888 12.7908C39.0235 12.9685 38.0497 13.4232 37.5081 14.1443C36.9248 14.9178 37.2217 15.754 37.3519 16.6215C37.6174 18.3722 35.7844 19.1195 34.3835 19.4749C32.9827 19.8302 31.3006 19.987 29.8685 19.5637C29.5456 19.4696 29.4102 19.9713 29.7279 20.0654L29.7227 20.0811Z" fill="#EB4853"/>
<path d="M19.6147 31.7037C20.8957 33.2558 20.9738 35.5291 20.3646 37.4523C19.7553 39.3754 18.5419 41.0321 17.3962 42.6887C17.3025 42.8246 17.2035 42.9762 17.2296 43.1382C17.2712 43.4099 17.5993 43.5144 17.8649 43.5615C20.0625 43.943 22.2757 44.267 24.4942 44.5283C24.9577 44.5858 25.5982 44.5126 25.6659 44.0475C25.744 43.4935 24.9004 43.2688 24.7181 42.7358C24.6556 42.5476 24.6869 42.3438 24.7181 42.1504C25.2128 39.4695 26.8428 36.8826 26.3064 34.2122C26.1502 33.4283 25.8065 32.6914 25.4732 31.965C25.041 31.0348 24.6088 30.1045 24.1765 29.1743C24.0828 29.2423 23.9943 29.3102 23.9005 29.3781" fill="#EB4853"/>
<path d="M19.4324 31.8918C21.2447 34.2017 20.4063 37.3373 19.0835 39.6524C18.7659 40.2064 18.4222 40.7394 18.068 41.262C17.74 41.7428 17.1723 42.3125 17.0109 42.8769C16.7036 43.9534 18.6044 43.9482 19.2033 44.0475C20.7083 44.2931 22.2185 44.5074 23.7339 44.6955C24.3693 44.7739 25.7389 45.0666 25.9211 44.1154C25.9784 43.8123 25.8326 43.5562 25.6347 43.342C25.4837 43.1852 25.2806 43.0702 25.14 42.8978C24.8327 42.5215 25.0098 41.9989 25.1139 41.5651C25.4316 40.2586 25.9524 39.0096 26.3065 37.7084C26.6606 36.4071 26.8273 35.0065 26.4419 33.6687C25.9784 32.0643 25.0983 30.5435 24.4005 29.0332C24.3432 28.913 24.1505 28.8608 24.0464 28.9392C23.9526 29.0071 23.8641 29.075 23.7704 29.143C23.5048 29.3416 23.7652 29.7962 24.0308 29.5924C24.1245 29.5245 24.213 29.4565 24.3068 29.3886L23.9526 29.2945C24.5411 30.5644 25.1973 31.8187 25.7076 33.1252C26.218 34.4317 26.244 35.6911 25.942 37.029C25.6764 38.1944 25.2389 39.3075 24.8848 40.4468C24.6505 41.2098 24.1037 42.4222 24.6713 43.1486C24.8692 43.3995 25.8222 43.9534 25.0515 44.2356C24.5463 44.4185 23.7235 44.1572 23.2184 44.0893C21.7915 43.9064 20.3698 43.6974 18.9533 43.4622C18.6461 43.4099 18.2295 43.4047 17.9379 43.2897C17.4952 43.1173 17.5212 42.95 17.7504 42.6156C18.0889 42.1191 18.4326 41.6331 18.7659 41.1314C19.4116 40.1489 20.0105 39.1298 20.4323 38.0272C21.2551 35.8845 21.2655 33.3656 19.8022 31.4999C19.5939 31.2334 19.2293 31.6096 19.4324 31.8709V31.8918Z" fill="#EB4853"/>
<path d="M6.43426 27.1989C3.12743 28.542 -0.309597 29.5715 -3.80911 30.2613C-3.97576 30.2927 -4.14761 30.3293 -4.29863 30.4077C-4.4861 30.507 -4.63192 30.6637 -4.77252 30.8205C-6.29314 32.4928 -7.81898 34.1599 -9.3396 35.8322C-8.88654 36.151 -8.26162 36.0726 -7.76169 35.8427C-7.26176 35.6128 -6.82953 35.2522 -6.34001 35.0013C-4.95479 34.2958 -3.30397 34.5519 -1.75211 34.4369C-0.413749 34.3376 0.888155 33.9561 2.17444 33.5746C5.71561 32.5294 9.262 31.4842 12.8032 30.4338C10.8243 29.0385 8.56939 28.0455 6.21034 27.5282" fill="#EB4853"/>
<path d="M6.36115 26.9481C3.42405 28.1344 0.398432 29.0803 -2.69489 29.7649C-3.27814 29.8955 -4.00721 29.9216 -4.52276 30.2457C-5.10081 30.6115 -5.55908 31.2961 -6.01735 31.7978C-7.18906 33.0834 -8.36078 34.369 -9.53249 35.6493C-9.64706 35.7748 -9.63143 35.9733 -9.48041 36.0622C-8.00145 36.9245 -6.63185 35.2051 -5.25183 34.902C-4.25718 34.6825 -3.22086 34.7661 -2.21058 34.7296C-1.28884 34.693 -0.377503 34.5414 0.518206 34.3167C2.54918 33.8098 4.5489 33.1513 6.55904 32.5608C8.56918 31.9702 10.7616 31.3222 12.8603 30.7003C13.0842 30.6324 13.105 30.3502 12.9227 30.2248C10.9074 28.8242 8.65771 27.8313 6.26741 27.293C5.93933 27.2198 5.80394 27.7215 6.12681 27.7947C8.48065 28.3277 10.6783 29.2945 12.6572 30.6742L12.7196 30.1986C8.83477 31.3431 4.96551 32.5503 1.06501 33.6373C0.13805 33.8934 -0.804527 34.1233 -1.76794 34.1913C-2.66365 34.254 -3.56456 34.1965 -4.45507 34.2697C-5.231 34.3324 -5.9861 34.5048 -6.6683 34.8863C-7.42861 35.3149 -8.30349 36.151 -9.22003 35.618L-9.16796 36.0308C-8.08477 34.8445 -7.00159 33.653 -5.91841 32.4667C-5.41327 31.9127 -4.90292 31.155 -4.2728 30.7421C-3.68955 30.3606 -2.7678 30.3345 -2.09081 30.1777C0.835871 29.5036 3.70006 28.5942 6.48613 27.4707C6.79338 27.3452 6.65798 26.8435 6.34553 26.969L6.36115 26.9481Z" fill="#EB4853"/>
</g>
<defs>
<clipPath id="clip0_286_1669">
<rect width="52.8" height="44.4" fill="white" transform="translate(-9.6001 0.400024)"/>
</clipPath>
</defs>
</svg>
