<svg width="42" height="41" viewBox="0 0 42 41" fill="none" xmlns="http://www.w3.org/2000/svg">
<g clip-path="url(#clip0_286_1378)" filter="url(#filter0_d_286_1378)">
<path d="M26.2085 3.49492C23.2135 0.775999 19.1746 -0.298923 14.7876 0.068965C10.1041 0.459846 2.10039 3.2305 4.4108 9.53633C5.00979 11.1688 6.21919 12.3932 6.58429 14.1349C6.95509 15.8939 6.88093 17.6643 6.7212 19.4406C6.3618 23.3149 5.30073 27.2179 6.88664 30.9485C9.10576 36.168 15.3695 37.2141 20.093 35.6334C25.889 33.6962 30.0249 28.747 31.3997 22.8608C32.592 17.7621 31.6051 12.1288 29.192 7.43247C28.3819 5.85745 27.3779 4.54685 26.2085 3.48917V3.49492Z" fill="#EB4853"/>
<path d="M30.3386 26.3844C30.9832 26.5339 31.6165 26.4362 32.204 26.1545C32.7004 25.9131 33.1624 25.4647 33.3963 24.9589C33.4933 24.7462 33.5447 24.5335 33.4819 24.2921C33.4249 24.0909 33.2765 23.8724 33.0883 23.7747C32.8886 23.6713 32.649 23.6138 32.4265 23.6885C32.2269 23.7517 32.0101 23.8839 31.9131 24.0851C31.8618 24.2001 31.7933 24.3093 31.7192 24.407L31.8504 24.2346C31.7477 24.3668 31.6336 24.4818 31.5024 24.5852L31.6735 24.453C31.5423 24.5507 31.3997 24.637 31.2514 24.7002L31.4567 24.614C31.297 24.6829 31.1316 24.7289 30.9547 24.7519L31.1829 24.7232C31.0289 24.7404 30.8749 24.7462 30.7208 24.7232L30.949 24.7519C30.892 24.7462 30.8349 24.7347 30.7779 24.7232C30.5554 24.6714 30.3158 24.6944 30.1161 24.8094C29.9393 24.9129 29.7681 25.1198 29.7225 25.3267C29.6712 25.5452 29.6826 25.7924 29.8081 25.9935C29.9279 26.1775 30.099 26.3384 30.3215 26.3902L30.3386 26.3844Z" fill="#EB4853"/>
<path d="M36.9616 54.5049C35.8834 53.3955 34.3546 52.6999 32.86 52.3895L32.7345 51.1536C32.7744 49.9868 32.8143 48.8141 32.8543 47.6472C32.9284 45.4226 32.9912 43.1981 32.7002 40.985C32.1412 36.7083 30.2415 32.8052 28.359 28.9884C27.8683 27.994 26.3908 28.8677 26.8814 29.8564C26.9613 30.0116 27.0355 30.1668 27.1153 30.3277L24.5254 33.1099C24.1489 32.0752 22.4945 32.5236 22.8767 33.5698C25.0902 39.5997 26.2938 45.9687 26.3509 52.401C26.3566 53.1598 26.3509 53.9186 26.3224 54.6773C26.2996 55.3959 26.1912 56.1316 26.2425 56.8444C26.3509 58.3849 27.5546 58.7643 28.8895 58.8103C30.5838 58.8678 32.2838 58.9253 33.9781 58.977C35.1475 59.0172 36.5566 59.1092 37.4408 58.1723C38.4905 57.0571 37.8915 55.4706 36.9616 54.5049Z" fill="#EB4853"/>
<path d="M22.2834 54.022C21.7358 53.5967 21.1254 53.2748 20.4808 53.0218C20.612 46.7045 20.7432 40.3815 20.8744 34.0641C20.8915 33.2421 19.9502 33.0294 19.4596 33.4318C19.2657 33.3973 19.0603 33.4031 18.8492 33.4606C17.4972 33.8342 16.1509 34.2078 14.7989 34.5815C14.6962 34.6102 14.5992 34.6562 14.5022 34.7079C13.9888 34.2998 13.0532 34.5067 13.1103 35.3345C13.5952 42.6808 13.3214 50.073 12.2489 57.356C12.1633 57.9251 12.4657 58.4194 13.0761 58.4482C15.0499 58.5459 17.0294 58.6436 19.0032 58.7414C19.9445 58.7873 20.8858 58.8448 21.8271 58.8793C22.6885 58.9138 23.3902 58.7184 23.7439 57.8561C24.3485 56.3903 23.413 54.913 22.2777 54.0335L22.2834 54.022Z" fill="#EB4853"/>
<path d="M25.6038 2.59244C25.6837 4.56409 26.5622 6.25982 27.5833 7.89807C28.6045 9.53632 29.4716 11.1401 29.9223 13.0542C30.3729 14.9684 30.5213 16.9746 30.6582 18.9462C30.7723 20.6362 30.8864 22.4239 29.8709 23.8724C29.3689 24.591 29.8595 25.8269 30.7209 25.9821C31.8048 26.1775 32.8602 25.9418 33.6531 25.1428C34.4974 24.2863 34.5602 23.0505 34.583 21.918C34.6286 19.6762 34.4404 17.4344 34.0753 15.2213C33.3565 10.8469 31.8048 6.61047 29.5743 2.78788C28.6444 1.19562 26.18 2.63843 27.1098 4.23644C28.9239 7.35199 30.2303 10.709 30.9947 14.2384C31.3598 15.9341 31.5937 17.6471 31.6907 19.3831C31.7135 19.8142 31.8961 23.2919 31.4796 23.2114L32.3296 25.321C33.4877 23.6713 33.6417 21.5847 33.5504 19.6302C33.4478 17.5091 33.2709 15.365 32.8773 13.2784C32.4837 11.1918 31.7535 9.24316 30.6582 7.43821C29.7511 5.95517 28.5246 4.40889 28.4504 2.59819C28.3763 0.787493 25.5239 0.747255 25.5981 2.59819L25.6038 2.59244Z" fill="#EB4853"/>
<path d="M17.0181 7.82335C17.0181 7.82335 17.0694 7.81761 17.0923 7.81186C17.1094 7.81186 17.1265 7.81186 17.1436 7.80611C17.1151 7.80611 17.1094 7.80611 17.1322 7.80611C17.1835 7.80036 17.2349 7.79461 17.2862 7.78886C17.3889 7.77737 17.4973 7.77162 17.6057 7.76587C17.7027 7.76587 17.7939 7.76587 17.8909 7.76587C17.9023 7.76587 17.9194 7.76587 17.9309 7.76587H17.8966C17.8966 7.76587 17.9423 7.77162 17.9537 7.77737C17.9137 7.74863 18.0107 7.78886 17.9537 7.77737C18.005 7.81186 17.9137 7.73713 17.9651 7.78312C17.9708 7.78886 17.9765 7.79461 17.9822 7.80036C17.9594 7.76587 17.948 7.76012 17.9651 7.77737C17.9651 7.79461 18.005 7.83485 17.9765 7.79461C17.9651 7.77162 17.9651 7.77162 17.9765 7.79461C17.9765 7.80036 17.9765 7.81186 17.9822 7.81761C17.9822 7.76587 17.9993 7.88658 17.9822 7.81761C17.9822 7.8291 17.9765 7.92682 17.9822 7.92682C17.9708 7.92107 17.9936 7.85209 17.9822 7.92682C17.9822 7.94407 17.9765 7.96131 17.9708 7.97856C17.9194 8.18549 17.8282 8.37518 17.8396 8.59362C17.8396 8.74307 17.9651 8.88678 18.1248 8.88103C18.2845 8.87528 18.4158 8.75457 18.41 8.59362C18.41 8.56488 18.4043 8.52464 18.41 8.50165C18.41 8.54188 18.4043 8.54188 18.41 8.50739V8.4844C18.4272 8.43267 18.4443 8.38093 18.4614 8.3292C18.4899 8.23148 18.5241 8.13951 18.5413 8.03604C18.5812 7.79461 18.5527 7.52444 18.3644 7.34625C18.1762 7.16805 17.9023 7.16231 17.6513 7.16805C17.4003 7.1738 17.1379 7.20254 16.8812 7.24278C16.7329 7.26577 16.6359 7.46121 16.6815 7.59917C16.7329 7.76012 16.8755 7.82335 17.0352 7.80036L17.0181 7.82335Z" fill="#333333"/>
<path d="M21.6845 4.89177C21.4963 4.9665 21.3137 5.05847 21.1369 5.16194C20.9714 5.26541 20.8003 5.38038 20.6634 5.51259C20.4751 5.70228 20.3782 5.99544 20.555 6.22537C20.6919 6.40356 20.903 6.43805 21.1141 6.46105C21.348 6.48979 21.5876 6.51278 21.8214 6.54152C21.8899 6.54727 21.9755 6.50128 22.0211 6.4553C22.0725 6.40356 22.1067 6.32309 22.1067 6.25411C22.1067 6.18513 22.0782 6.10465 22.0211 6.05292C21.9641 5.99544 21.9013 5.97819 21.8214 5.9667C21.5933 5.9437 21.3651 5.91496 21.1312 5.89197C21.1027 5.89197 21.0798 5.88622 21.0513 5.88047C21.0798 5.88047 21.1483 5.88047 21.0513 5.88047C21.0342 5.88047 21.0228 5.87472 21.0114 5.86898C21 5.86898 20.9943 5.86898 20.9829 5.86323C20.9543 5.85173 20.9657 5.86323 21.0114 5.87472C21 5.86323 20.9771 5.85173 20.9657 5.84598C21.0057 5.88047 21.0114 5.88622 20.9943 5.86323C20.9771 5.84024 20.9829 5.85173 21.0171 5.89197C21.0057 5.86898 21.0057 5.87472 21.0285 5.92071C21.0228 5.89197 21.0228 5.89772 21.0285 5.94945C21.0285 5.92071 21.0285 5.92646 21.0228 5.97819C21.0228 5.9667 21.0228 5.9552 21.0285 5.94945C21.0114 5.99544 21.0057 6.00119 21.0171 5.97245C21.0171 5.96095 21.0285 5.9552 21.0342 5.9437C21.0513 5.92071 21.0456 5.92646 21.0228 5.96095C21.0285 5.94945 21.0399 5.9437 21.0456 5.93221C21.0798 5.89772 21.1141 5.86898 21.1483 5.83449C21.1597 5.82874 21.1654 5.81724 21.1768 5.81149C21.1426 5.83449 21.1426 5.84024 21.1654 5.82299C21.1825 5.81149 21.1939 5.8 21.211 5.7885C21.251 5.75976 21.2966 5.73102 21.3365 5.70228C21.4221 5.6448 21.5077 5.59306 21.599 5.54707C21.6446 5.52408 21.6902 5.50109 21.7359 5.4781C21.7587 5.4666 21.7815 5.4551 21.8043 5.44361C21.8329 5.43211 21.8271 5.43211 21.7872 5.44935C21.7986 5.44935 21.81 5.43786 21.8214 5.43211C21.8956 5.40337 21.9527 5.36888 21.9926 5.2999C22.0268 5.23667 22.0439 5.1447 22.0211 5.07572C21.9983 5.00674 21.9584 4.93776 21.8899 4.90327C21.8214 4.86878 21.7416 4.84579 21.6674 4.87453L21.6845 4.89177Z" fill="#333333"/>
<path d="M20.7661 7.94405C20.2812 7.97854 19.9903 8.40966 19.9332 8.86952C19.8762 9.32937 19.9789 9.78923 20.2014 10.1974C20.5779 10.8929 21.2853 11.5022 22.0269 11.7666C22.5118 11.9391 23.2819 12.0253 23.59 11.4965C23.7668 11.1918 23.6983 10.8124 23.5785 10.502C23.4359 10.1226 23.2591 9.749 23.0366 9.4156C22.5289 8.65108 21.7873 8.15673 20.9087 7.9268C20.5551 7.83483 20.401 8.38666 20.7547 8.47863C21.3651 8.63959 21.9128 8.93849 22.3292 9.42135C22.5289 9.65702 22.6886 9.92719 22.8255 10.2031C22.9453 10.4503 23.1108 10.7779 23.1222 11.0194C23.1222 11.0481 23.1222 11.0768 23.1222 11.1056C23.1222 11.1918 23.1393 11.0596 23.1222 11.1343C23.1165 11.1573 23.1108 11.1803 23.0993 11.2033C23.1222 11.1401 23.0993 11.2033 23.0879 11.2148C23.0423 11.2723 23.1222 11.1688 23.0822 11.2263C23.0822 11.2263 23.0309 11.278 23.0651 11.2493C23.0936 11.2263 22.9339 11.3068 23.0081 11.2838C22.8426 11.3413 22.6487 11.3355 22.4718 11.2953C21.9299 11.1803 21.445 10.8354 21.0514 10.4043C20.7832 10.1111 20.5665 9.75475 20.5037 9.35237C20.4752 9.17992 20.4752 8.99023 20.5265 8.82353C20.5608 8.71431 20.6349 8.53612 20.7718 8.52462C20.9259 8.51312 21.0571 8.39816 21.0571 8.23721C21.0571 8.08775 20.9259 7.9383 20.7718 7.9498L20.7661 7.94405Z" fill="#333333"/>
<path d="M16.6132 23.5276L17.2464 24.2806C17.292 24.3324 17.3833 24.3668 17.446 24.3668C17.5088 24.3668 17.6001 24.3381 17.6457 24.2806C17.6913 24.2231 17.7313 24.1542 17.7313 24.0794C17.7313 24.0047 17.6971 23.9357 17.6457 23.8782L17.0125 23.1252C16.9668 23.0735 16.8756 23.039 16.8128 23.039C16.7501 23.039 16.6588 23.0677 16.6132 23.1252C16.5675 23.1827 16.5276 23.2517 16.5276 23.3264C16.5276 23.4011 16.5618 23.4701 16.6132 23.5276Z" fill="#333333"/>
<path d="M14.1714 13.859C13.5495 14.1982 13.3385 14.9627 13.5495 15.6238C13.8405 16.5205 14.6848 16.9803 15.2895 17.6299C16.0197 18.4059 16.3277 19.6015 16.613 20.6075C16.9324 21.7571 17.1321 22.9355 17.2177 24.1254C17.2405 24.4933 17.811 24.4933 17.7881 24.1254C17.6569 22.217 17.2462 20.3143 16.5103 18.5496C16.1509 17.6931 15.6318 17.1585 14.9529 16.5492C14.4167 16.0721 13.4583 14.911 14.468 14.3591C14.7932 14.1809 14.5022 13.6866 14.1828 13.8648L14.1714 13.859Z" fill="#333333"/>
<path d="M14.8047 9.82373C13.6695 10.0192 13.6695 11.5482 13.7664 12.4277C13.8292 13.0083 14.1087 13.5026 14.3711 14.0142C14.6735 14.6005 14.9758 15.1811 15.2782 15.7674C15.4493 16.0951 15.9399 15.8077 15.7688 15.48C15.5349 15.0259 15.301 14.5718 15.0671 14.1177C14.8332 13.6636 14.5594 13.2267 14.4111 12.7553C14.2742 12.3127 14.2913 11.7954 14.3255 11.3355C14.354 10.9216 14.5024 10.4675 14.9587 10.3871C15.3181 10.3238 15.1641 9.772 14.8047 9.83523V9.82373Z" fill="#333333"/>
<path d="M16.0654 12.8531C15.7802 12.1346 15.5748 11.3873 15.4664 10.6228C15.4322 10.3814 15.3181 9.95599 15.5121 9.76055C15.6547 9.6111 15.8715 9.6111 16.0312 9.72606C16.1567 9.81803 16.3507 9.74906 16.4191 9.62259C16.5047 9.47889 16.4419 9.32369 16.3164 9.23171C16.0312 9.01903 15.6319 9.02478 15.3238 9.19148C14.9473 9.39266 14.8218 9.79504 14.8503 10.2032C14.9131 11.1631 15.1584 12.1231 15.5121 13.0083C15.5691 13.152 15.7003 13.2555 15.8658 13.2095C16.0027 13.1693 16.1225 13.0026 16.0654 12.8531Z" fill="#333333"/>
<path d="M17.5145 12.7898C17.1893 12.2035 16.9383 11.5942 16.7786 10.9447C16.7101 10.663 16.596 10.3124 16.6246 10.0192C16.6474 9.80651 16.5162 9.42712 17.0353 9.50185C17.1893 9.52484 17.3491 10.0364 17.3947 10.1859C17.7655 11.3068 18.2276 12.2323 18.9464 13.1807C19.6652 14.1292 20.4638 15.0547 21.0799 16.0951C21.736 17.2045 22.2038 18.3886 22.586 19.6188C23.5501 22.7573 24.8507 27.4421 20.9373 29.0804C19.591 29.6437 17.9823 29.5632 16.5675 29.3276C15.1527 29.0919 13.7494 28.563 12.6598 27.5628C12.386 27.3157 11.9866 27.718 12.2548 27.971C15.6319 31.0635 23.6128 31.2187 24.1605 25.4647C24.3658 23.3034 23.6527 21.1133 23.0195 19.0784C22.546 17.5666 21.8672 16.1353 20.9544 14.842C20.0417 13.5486 18.9121 12.4679 18.2789 11.0366C18.0108 10.4388 17.9994 9.54784 17.4689 9.10522C17.1266 8.81781 16.6303 8.77182 16.3108 9.12246C15.9514 9.52484 16.0484 10.1284 16.134 10.6113C16.2823 11.4792 16.596 12.3012 17.0239 13.0715C17.2007 13.3934 17.697 13.106 17.5145 12.7841V12.7898Z" fill="#333333"/>
<path d="M25.7521 3.60413C26.4937 4.17895 27.0699 5.13891 27.6232 5.89768C28.2108 6.69669 28.6957 7.55892 29.1521 8.43266C30.0991 10.2549 30.8407 12.1863 31.2286 14.2039C31.588 16.1066 31.6393 18.1299 31.5766 20.0671C31.5138 22.0043 31.1772 24.1714 30.0021 25.8441C29.791 26.1488 30.2816 26.4362 30.4927 26.1315C31.6564 24.4818 32.0387 22.4066 32.1299 20.4235C32.2326 18.3254 32.1642 16.1181 31.7762 14.0487C31.3883 11.9793 30.584 9.92145 29.5856 8.03028C29.0665 7.04158 28.5017 6.10462 27.8229 5.21939C27.2638 4.48936 26.7675 3.67311 26.0373 3.10403C25.7464 2.87985 25.4611 3.37995 25.7521 3.59838V3.60413Z" fill="#333333"/>
<path d="M28.0796 2.47749C28.1309 2.66718 28.1765 2.85687 28.1994 3.05231L28.188 2.97758C28.1994 3.06381 28.2051 3.14428 28.2108 3.23051C28.2108 3.30523 28.2393 3.37996 28.2963 3.43169C28.3477 3.48343 28.4275 3.51792 28.496 3.51792C28.6443 3.51217 28.7926 3.39146 28.7812 3.23051C28.7584 2.92585 28.7071 2.62119 28.6272 2.32228C28.5873 2.17858 28.4218 2.07511 28.2735 2.12109C28.1252 2.16708 28.0282 2.32228 28.0739 2.47749H28.0796Z" fill="#333333"/>
<path d="M26.3452 1.69571C26.3908 1.77618 26.4365 1.86241 26.4764 1.94288C26.4878 1.96587 26.4992 1.98887 26.5049 2.01186V2.02911C26.5049 2.02911 26.5221 2.0521 26.5049 2.01186C26.5164 2.02336 26.5278 2.06934 26.5335 2.08084C26.5392 2.10383 26.5506 2.12108 26.5563 2.14407C26.619 2.31652 26.6704 2.49471 26.6989 2.67866C26.7274 2.82811 26.91 2.92583 27.0526 2.87985C27.2123 2.82811 27.2808 2.68441 27.2523 2.52345C27.1781 2.13257 27.0355 1.74744 26.8358 1.40255C26.7617 1.27034 26.5734 1.21285 26.4479 1.29908C26.3224 1.3853 26.2653 1.552 26.3452 1.68996V1.69571Z" fill="#333333"/>
</g>
<defs>
<filter id="filter0_d_286_1378" x="0" y="0" width="42" height="67" filterUnits="userSpaceOnUse" color-interpolation-filters="sRGB">
<feFlood flood-opacity="0" result="BackgroundImageFix"/>
<feColorMatrix in="SourceAlpha" type="matrix" values="0 0 0 0 0 0 0 0 0 0 0 0 0 0 0 0 0 0 127 0" result="hardAlpha"/>
<feOffset dy="4"/>
<feGaussianBlur stdDeviation="2"/>
<feComposite in2="hardAlpha" operator="out"/>
<feColorMatrix type="matrix" values="0 0 0 0 0 0 0 0 0 0 0 0 0 0 0 0 0 0 0.25 0"/>
<feBlend mode="normal" in2="BackgroundImageFix" result="effect1_dropShadow_286_1378"/>
<feBlend mode="normal" in="SourceGraphic" in2="effect1_dropShadow_286_1378" result="shape"/>
</filter>
<clipPath id="clip0_286_1378">
<rect width="34" height="59" fill="white" transform="translate(4)"/>
</clipPath>
</defs>
</svg>
