<svg width="101" height="30" viewBox="0 0 101 30" fill="none" xmlns="http://www.w3.org/2000/svg">
<g clip-path="url(#clip0_286_1243)">
<path d="M37.1922 15.7204C36.8552 14.512 37.1224 13.1875 37.9009 12.1069C37.715 11.9675 37.5291 11.8281 37.3548 11.6654C35.6585 10.1201 34.8568 7.78469 35.1589 5.22853C35.2286 4.61273 35.368 4.03178 35.5655 3.47407C35.3215 3.28817 35.0543 3.10227 34.7754 2.91637C32.3238 1.35943 28.966 -0.0115967 25.8173 -0.0115967C24.6554 -0.0115967 23.5167 0.174306 22.471 0.604205C20.856 1.26648 19.7522 2.5678 19.2642 4.21768C19.2293 4.35711 19.1829 4.48492 19.148 4.62434C18.6949 6.6228 19.729 8.67934 21.2278 9.95742C21.4602 10.1549 21.7042 10.3176 21.9482 10.4919C23.2495 11.433 24.7018 12.1766 25.9683 13.1642C26.2472 13.385 26.5492 13.6174 26.8397 13.873C26.8397 13.873 30.3603 16.1503 30.5462 19.7986C30.2324 17.196 27.6414 15.5693 25.1434 15.5693C24.6321 15.5693 24.1325 15.6391 23.6445 15.7785C23.0984 15.9412 22.6104 16.1619 22.1805 16.4408C19.8684 17.8931 18.9853 20.8095 19.6011 23.4586C19.7406 24.0744 19.9613 24.6669 20.2634 25.2247C21.983 28.4082 25.8754 29.9884 29.3843 29.9884C29.5702 29.9884 29.7444 29.9884 29.9304 29.9768C32.0101 29.8838 34.0086 29.1518 35.6004 27.7924C35.124 26.9791 34.7987 26.0612 34.6592 25.0852C34.3339 22.7034 35.0659 20.7398 35.8444 18.9388C36.2278 18.0326 36.8785 17.3238 37.6918 16.8358C37.4594 16.4989 37.2851 16.1154 37.1805 15.7204H37.1922Z" fill="white"/>
<path d="M57.2231 2.96282C57.5368 2.50968 57.8854 2.10302 58.2456 1.70798C57.3277 1.1038 56.3168 0.650658 55.2711 0.41828C54.1092 0.151046 52.8893 0.0464756 51.6693 0.0464756C51.2277 0.0464756 50.7862 0.0580945 50.3331 0.0813323C49.3222 0.0348567 48.2998 0 47.2889 0C47.1379 0 46.9752 0 46.8242 0C46.6731 0 46.5337 0 46.3827 0C46.069 0 45.7552 0 45.4415 0C43.5825 0 41.6538 0.0697134 40.0155 0.941131C39.1789 1.39427 38.5167 2.10302 38.0287 2.93958C37.8428 3.26491 37.6801 3.60186 37.5407 3.95043C37.4013 4.33385 37.2967 4.72889 37.227 5.13555C36.9133 6.97134 37.3432 8.9117 38.7142 10.1549C38.8652 10.2943 39.0279 10.3989 39.1906 10.5035C39.5275 10.7359 39.8877 10.9218 40.2595 11.038C40.5965 11.1425 40.945 11.2122 41.2936 11.2471C41.5027 11.2703 41.7119 11.2936 41.921 11.2936C42.7343 11.2936 43.5593 11.1309 44.3261 10.8753C45.1743 10.5964 46.0225 10.3176 46.9055 10.1549C46.9404 10.1549 47.1263 10.1201 47.2657 10.0968C47.3935 10.0852 47.6026 10.062 47.6491 10.0503C48.0906 10.0155 48.567 9.9574 49.0085 9.9574C49.8451 9.9574 50.6468 10.1317 51.1929 10.8985C51.3788 11.1541 51.5298 11.4446 51.5066 11.7583C51.4485 12.56 50.3796 13.0248 49.7289 13.2107C49.0899 13.3966 48.4392 13.4547 47.7769 13.4547C47.3703 13.4547 46.9752 13.4314 46.5686 13.4198C45.5229 13.3734 44.5004 13.2688 43.5128 12.897C43.0132 12.5717 42.4439 12.3393 41.8397 12.2812C41.7467 12.2812 41.6654 12.2696 41.5724 12.2696C41.5027 12.2696 41.433 12.2812 41.3517 12.2928C40.9915 12.3277 40.6545 12.4206 40.3408 12.5949C40.1201 12.7227 39.8993 12.8737 39.725 13.0596C39.5624 13.2455 39.4346 13.4547 39.33 13.6754C39.1092 14.1402 39.0047 14.6514 39.1441 15.1627C39.1789 15.2789 39.237 15.3718 39.2951 15.488C39.5043 15.9179 39.8645 16.2548 40.2944 16.464C40.5035 16.5686 40.7126 16.6499 40.9334 16.6847C41.0612 16.708 41.1774 16.708 41.3052 16.7196C41.433 16.7312 41.5608 16.7545 41.6886 16.7545C41.9791 16.7545 42.2696 16.7312 42.56 16.6964C43.6522 16.5569 44.7676 16.4291 45.8714 16.4291C46.6034 16.4291 47.3354 16.4872 48.0558 16.6383C48.9272 16.8242 50.0775 17.0333 50.6352 17.7885C51.1813 18.5089 51.1697 19.787 50.6933 20.5422C50.2982 21.1696 49.636 21.3555 48.9156 21.3555C48.1952 21.3555 47.3935 21.158 46.7777 21.0418C46.1038 20.914 45.4415 20.7862 44.7676 20.6584C43.536 20.4144 43.3618 19.0666 42.2347 18.5554C41.9326 18.416 41.5957 18.323 41.2355 18.2533C40.9683 18.2068 40.6894 18.1603 40.4222 18.1603C40.3525 18.1603 40.2944 18.1836 40.2246 18.1836C39.8645 18.2068 39.5159 18.2765 39.1906 18.3927C38.5515 18.6251 38.0054 19.0318 37.7033 19.7289C36.983 21.4136 36.4253 22.9357 36.6693 24.7947C36.739 25.2827 36.8668 25.7359 37.0527 26.1658C37.2037 26.5143 37.3896 26.8397 37.6104 27.1418C37.8195 27.4206 38.0403 27.6878 38.2959 27.9202C38.8885 28.4779 39.6088 28.9194 40.4222 29.2215C41.9442 29.8025 43.6522 29.9768 45.3602 29.9768C46.6848 29.9768 48.0209 29.8722 49.2642 29.7676C50.8211 29.6398 52.378 29.4539 53.9349 29.2448C55.457 29.0356 56.9442 28.7684 58.292 27.9783C58.6174 27.7924 58.9311 27.56 59.2099 27.316C57.1301 24.7831 55.9102 21.6576 55.4105 18.9156C54.1092 11.7816 54.7018 6.55306 57.2115 2.92796L57.2231 2.96282Z" fill="white"/>
<path d="M76.4872 16.8358C76.2548 16.4988 76.0805 16.1154 75.9759 15.7204C75.639 14.512 75.9062 13.1875 76.6847 12.1069C76.4988 11.9675 76.3129 11.828 76.1386 11.6654C74.4422 10.1201 73.6405 7.78466 73.9426 5.22851C74.0588 4.27576 74.326 3.36948 74.7095 2.54454C73.5476 1.76607 72.2811 1.13865 70.9914 0.673896C69.7366 0.232378 68.4004 0 67.0875 0C65.0542 0 63.0557 0.557707 61.371 1.68474C61.0805 1.88226 60.79 2.0914 60.5228 2.32378C60.2672 2.54454 60.0348 2.77692 59.8024 3.02091C59.4771 3.35786 59.175 3.71805 58.8961 4.12471C57.0255 6.82029 56.6421 10.457 56.8396 13.9311C56.8861 14.6398 56.9442 15.3486 57.0371 16.0341C57.1417 16.9171 57.2811 17.7769 57.4322 18.5902C57.8853 21.0767 58.9542 23.6909 60.5925 25.794C60.8133 26.0844 61.0456 26.3517 61.2896 26.6189C61.522 26.8745 61.766 27.1185 62.01 27.3393C62.9395 28.1991 63.9968 28.9078 65.182 29.3842C66.2509 29.8141 67.4128 30.0116 68.6095 30.0116C70.6893 30.0116 72.862 29.4074 74.7559 28.385C74.0588 27.4322 73.594 26.3284 73.4314 25.1084C73.1061 22.7266 73.838 20.763 74.6165 18.962C74.9999 18.0558 75.6506 17.347 76.4639 16.859L76.4872 16.8358ZM67.2501 16.0108C66.2509 16.9171 64.9031 17.7072 63.5205 17.3354C62.254 16.9868 61.3942 15.8714 61.0573 14.6514C61.0108 14.4655 60.9643 14.2796 60.9294 14.0821C60.8481 13.6406 60.8249 13.1875 60.8365 12.7343C60.8713 11.6189 61.1851 10.5151 61.6847 9.5275C61.9519 9.00465 62.3121 8.51665 62.7188 8.06352C62.8349 7.93571 62.9511 7.78466 63.0789 7.65686C63.2881 7.45933 63.5088 7.28505 63.7296 7.12239C65.3911 5.94888 67.5755 5.73974 69.1208 7.38962C71.3981 9.82959 69.4345 14.0356 67.2501 15.9992V16.0108Z" fill="white"/>
<path d="M100.05 19.6127C99.144 17.4748 97.0062 16.0341 94.7637 15.825C94.7405 15.825 94.7172 15.8133 94.694 15.8017C94.5662 15.7553 94.5197 15.7436 94.4616 15.7088C94.3687 15.6623 94.2757 15.6042 94.1828 15.5461C94.1828 15.5461 94.0782 15.4183 94.0666 15.4183C94.055 15.3951 94.0317 15.3486 94.0201 15.337C94.0201 15.3137 93.9852 15.2324 93.9736 15.1859C93.9736 15.1278 93.9736 15.0814 93.9736 15.0233C93.9736 15.0233 93.9736 14.9419 93.9736 14.9071C93.9736 14.8722 93.9969 14.7909 93.9969 14.7909C94.2525 13.8149 94.9031 14.0589 95.7629 13.8962C98.9465 13.3037 100.898 9.65533 100.399 6.61118C99.8877 3.46245 97.0294 1.0922 94.0201 0.406684C92.8582 0.139449 91.6382 0.0348789 90.4182 0.0348789C89.9767 0.0348789 89.5352 0.0464978 89.0821 0.0697356C88.0712 0.02326 87.0488 -0.0115967 86.0379 -0.0115967C85.8869 -0.0115967 85.7242 -0.0115967 85.5732 -0.0115967C85.4221 -0.0115967 85.2827 -0.0115967 85.1316 -0.0115967C84.8179 -0.0115967 84.5042 -0.0115967 84.1905 -0.0115967C82.3315 -0.0115967 80.4028 0.0581167 78.7645 0.929534C78.2416 1.20839 77.7885 1.60343 77.3935 2.05657C77.1727 2.31218 76.9752 2.59104 76.8009 2.88151C76.6266 3.1836 76.4639 3.49731 76.3361 3.83426C75.5112 5.97214 75.7552 8.59801 77.4632 10.1433C78.1719 10.7824 79.0085 11.1077 79.9031 11.2355C80.1588 11.2704 80.4144 11.2936 80.6816 11.2936C80.7629 11.2936 80.8559 11.2704 80.9372 11.2704C81.2742 11.2587 81.6111 11.2355 81.9481 11.1658C82.3315 11.0961 82.7149 11.0031 83.0751 10.8753C83.9233 10.5965 84.7715 10.3176 85.6545 10.1549C85.6894 10.1549 85.8753 10.1201 86.0147 10.0968C86.1425 10.0852 86.3516 10.062 86.3981 10.0504C86.8396 10.0155 87.316 9.95742 87.7575 9.95742C88.5941 9.95742 89.3958 10.1317 89.9419 10.8986C90.1278 11.1542 90.2788 11.4446 90.2556 11.7583C90.1975 12.5601 89.1285 13.0248 88.4779 13.2107C87.8389 13.3966 87.1882 13.4547 86.5259 13.4547C86.1193 13.4547 85.7242 13.4315 85.3175 13.4199C84.2718 13.3734 83.2494 13.2688 82.2618 12.897C82.2269 12.8738 82.1921 12.8621 82.1688 12.8505C81.8319 12.6414 81.4717 12.502 81.0999 12.409C80.9256 12.3625 80.7629 12.3044 80.5887 12.2928C80.4957 12.2928 80.4144 12.2812 80.3214 12.2812C80.2285 12.2812 80.1471 12.2928 80.0658 12.3044C79.4616 12.3625 78.8923 12.6181 78.4856 13.0713C77.986 13.629 77.6956 14.4191 77.9047 15.1743C78.1255 15.9876 78.8923 16.5453 79.694 16.6964C79.9264 16.7429 80.1471 16.7545 80.3795 16.7545C80.4028 16.7545 80.426 16.7545 80.4492 16.7545C80.7397 16.7545 81.0302 16.7312 81.3206 16.6964C81.3439 16.6964 81.3787 16.6964 81.402 16.6964C81.7389 16.6499 82.0759 16.6151 82.4244 16.5802C83.1564 16.4989 83.9 16.4291 84.6436 16.4291C85.3873 16.4291 86.1076 16.4872 86.828 16.6383C87.6994 16.8242 88.8497 17.0333 89.4074 17.7886C89.9535 18.5089 89.9419 19.787 89.4655 20.5422C89.0705 21.1697 88.4082 21.3556 87.6878 21.3556C86.9674 21.3556 86.1657 21.158 85.5499 21.0419C84.876 20.914 84.2138 20.7862 83.5399 20.6584C82.9938 20.5539 82.6568 20.2285 82.3547 19.8567C82.0526 19.4965 81.7854 19.0783 81.3904 18.7878C81.2742 18.7065 81.1464 18.6251 81.0069 18.5554C80.821 18.4741 80.6003 18.416 80.3795 18.3463C79.9961 18.2417 79.6011 18.1604 79.1944 18.1604C78.0674 18.1604 76.9636 18.6019 76.4756 19.7289C75.7552 21.4137 75.1975 22.9357 75.4415 24.7948C75.5693 25.7475 75.9295 26.5608 76.4639 27.2463C76.6731 27.5136 76.8938 27.7692 77.1495 28.0016C77.4051 28.234 77.6955 28.4431 77.9976 28.629C78.3694 28.8614 78.7645 29.0589 79.1944 29.2216C80.7165 29.8025 82.4244 29.9768 84.1324 29.9768C85.457 29.9768 86.7931 29.8722 88.0364 29.7676C89.5933 29.6398 91.1502 29.4539 92.7072 29.2448C94.2292 29.0357 95.7165 28.7684 97.0643 27.9783C99.8993 26.3285 101.328 22.6569 100.039 19.5895L100.05 19.6127Z" fill="white"/>
<path d="M18.0558 18.3695C18.8924 16.371 20.3912 14.8838 22.3315 14.0937C22.5755 13.9892 22.8312 13.9078 23.0868 13.8265C23.1449 13.8033 23.203 13.7916 23.2611 13.78C23.0752 13.6638 22.8893 13.5476 22.6917 13.4315C22.5523 13.3501 22.4245 13.2572 22.2851 13.1758C21.495 12.6878 20.6817 12.165 19.9148 11.5143C17.6724 9.60884 16.5918 6.72736 17.1611 4.18282C17.2773 3.65997 17.4516 3.16035 17.6607 2.68398C15.6972 1.12705 13.1875 0.278866 10.4106 0.104583C6.55308 -0.151033 -0.302069 1.12705 0.824964 6.49498C1.11544 7.88925 1.952 9.01628 2.04495 10.4803C2.1379 11.9442 1.85905 13.3734 1.5221 14.7793C0.76687 17.8699 -0.569304 20.8908 0.278876 24.0976C1.464 28.5825 6.43689 30.1859 10.4687 29.4772C13.4547 28.9543 16.069 27.4555 18.0906 25.3525C17.1728 23.1216 17.1495 20.5771 18.0674 18.3695H18.0558ZM3.4276 19.1247C3.4276 19.1247 6.83194 12.5368 3.95045 5.94889C3.95045 5.94889 14.3029 12.5368 3.4276 19.1247Z" fill="white"/>
</g>
<defs>
<clipPath id="clip0_286_1243">
<rect width="100.538" height="30" fill="white"/>
</clipPath>
</defs>
</svg>
