<svg width="48" height="48" viewBox="0 0 48 48" fill="none" xmlns="http://www.w3.org/2000/svg">
<g clip-path="url(#clip0_286_1419)">
<rect width="48" height="48" rx="4" fill="#333333"/>
<g clip-path="url(#clip1_286_1419)">
<rect width="48" height="48" fill="#333333"/>
<g clip-path="url(#clip2_286_1419)">
<path d="M20.2921 24.94C18.9881 23.932 18.2201 22.324 17.7241 20.792C17.1321 18.964 17.9961 17.032 17.3161 15.228C16.9161 14.164 15.4601 13.808 14.7361 14.704C13.5241 16.216 13.4001 18.708 13.4201 20.56C13.4601 23.728 14.1561 26.884 15.0201 29.916L18.4001 50.276H38.9921C37.9641 47.42 36.8881 44.58 35.8001 41.748C33.8121 36.58 31.7721 31.416 29.4401 26.392C28.7801 24.968 28.1841 23.516 27.4001 22.152C26.7121 20.952 25.9161 19.276 24.3081 19.752C23.3521 20.032 23.0161 21.044 23.0841 21.964C22.8721 21.4 22.5921 20.828 22.1041 20.472C20.6761 19.436 18.6681 20.68 18.4801 22.248" fill="#5EA5DD"/>
<path d="M20.4363 24.796C19.8523 22.344 18.6603 22.732 18.1723 21.456C17.9163 20.784 17.7283 20.124 17.7083 19.4C17.6843 18.64 17.7843 17.88 17.7923 17.12C17.8043 16.12 17.7043 14.844 16.7643 14.264C15.9963 13.792 15.0563 13.968 14.5123 14.672C13.0923 16.52 13.1363 19.304 13.2523 21.512C13.3283 22.988 13.5403 24.456 13.8283 25.904C14.1003 27.276 14.5443 28.608 14.8283 29.976C15.1803 31.648 15.3883 33.36 15.6683 35.044C16.1843 38.152 16.7003 41.26 17.2163 44.368C17.5443 46.356 17.8763 48.344 18.2043 50.328C18.2203 50.412 18.3163 50.476 18.3963 50.476C20.7123 50.476 23.0323 50.476 25.3483 50.476C29.0443 50.476 32.7403 50.476 36.4363 50.476C37.2883 50.476 38.1363 50.476 38.9883 50.476C39.1083 50.476 39.2243 50.348 39.1803 50.224C37.2403 44.856 35.2003 39.516 33.0443 34.232C32.0043 31.68 30.9203 29.144 29.7683 26.64C29.1883 25.384 28.6483 24.108 28.0163 22.876C27.5683 22.008 27.1003 21.06 26.4563 20.316C25.8603 19.628 25.0083 19.264 24.1163 19.604C23.1563 19.972 22.8283 21.016 22.8763 21.964L23.2683 21.912C22.8123 20.732 21.9603 19.708 20.5683 19.924C19.4283 20.1 18.4483 21.052 18.2803 22.2C18.2443 22.452 18.6283 22.56 18.6643 22.308C18.8043 21.376 19.5203 20.592 20.4363 20.36C21.6803 20.048 22.4723 20.964 22.8803 22.02C22.9563 22.216 23.2843 22.208 23.2723 21.968C23.2203 20.936 23.7243 19.784 24.9363 19.876C25.8443 19.944 26.4003 20.848 26.8163 21.556C28.0123 23.584 28.9323 25.76 29.9003 27.9C32.0003 32.556 33.8723 37.312 35.7043 42.08C36.7563 44.82 37.7923 47.568 38.7923 50.332L38.9843 50.08C36.6683 50.08 34.3483 50.08 32.0323 50.08C28.3363 50.08 24.6403 50.08 20.9443 50.08C20.0923 50.08 19.2443 50.08 18.3923 50.08L18.5843 50.228C17.8403 45.736 17.0923 41.244 16.3483 36.752C15.9923 34.596 15.6323 32.444 15.2763 30.288C15.0363 28.836 14.5403 27.432 14.2443 25.988C13.7043 23.308 13.3523 20.432 13.7843 17.708C13.8883 17.044 14.0523 16.38 14.3283 15.764C14.5723 15.224 14.9163 14.56 15.5443 14.42C17.3563 14.02 17.4283 16.504 17.3723 17.648C17.3363 18.408 17.2563 19.168 17.3403 19.928C17.4163 20.6 17.6443 21.232 17.9003 21.852C18.4043 23.084 19.1043 24.24 20.1523 25.08C20.3523 25.24 20.6363 24.956 20.4363 24.796Z" fill="#5EA5DD"/>
<path d="M18.5519 32.124C19.0159 30.832 19.4759 29.536 19.9479 28.248C20.1759 27.624 20.4239 26.988 20.8119 26.444C21.1159 26.016 21.6479 25.468 22.2159 25.484C22.7839 25.5 22.8999 26.184 22.9399 26.632C23.0039 27.348 22.9199 28.08 22.8279 28.792C22.7439 29.416 22.5959 30.048 22.5719 30.676C22.5639 30.932 22.9639 30.932 22.9719 30.676C22.9959 30.048 23.1439 29.416 23.2279 28.792C23.3319 27.996 23.4279 27.168 23.3119 26.368C23.2319 25.824 22.9999 25.204 22.3879 25.1C21.2199 24.9 20.3439 26.3 19.9439 27.184C19.6079 27.928 19.3559 28.712 19.0799 29.48L18.1679 32.016C18.0799 32.26 18.4679 32.364 18.5519 32.124Z" fill="#333333"/>
<path d="M19.1041 22.836C19.2121 24.048 19.5921 25.216 20.2281 26.256C20.3641 26.476 20.7081 26.276 20.5721 26.056C19.9761 25.08 19.6041 23.98 19.5041 22.84C19.4801 22.584 19.0801 22.584 19.1041 22.84V22.836Z" fill="#333333"/>
<path d="M23.3999 29.268C24.0959 28.348 23.9839 27.136 23.8759 26.06C23.7359 24.668 23.5359 23.28 23.2719 21.904C23.2239 21.652 22.8399 21.76 22.8879 22.012C23.1319 23.308 23.3279 24.612 23.4599 25.92C23.5679 26.968 23.7319 28.168 23.0519 29.068C22.8959 29.272 23.2439 29.472 23.3959 29.268H23.3999Z" fill="#333333"/>
<path d="M23.4238 23.968C23.6198 25.284 24.3198 27.076 25.7918 27.4C26.2918 27.508 26.7998 27.352 27.0678 26.896C27.2478 26.588 27.2798 26.232 27.3038 25.88C27.3358 25.384 27.3438 24.884 27.3358 24.384C27.3118 23.264 27.1878 22.144 26.9718 21.044C26.9238 20.792 26.5358 20.9 26.5878 21.152C26.7958 22.22 26.9158 23.3 26.9398 24.384C26.9518 24.916 26.9398 25.452 26.9038 25.984C26.8798 26.324 26.8198 26.724 26.5118 26.928C25.9558 27.292 25.2198 26.736 24.8598 26.34C24.2478 25.664 23.9518 24.748 23.8198 23.86C23.7838 23.608 23.3958 23.716 23.4358 23.968H23.4238Z" fill="#333333"/>
</g>
<g clip-path="url(#clip3_286_1419)">
<path d="M18.8601 13.14C19.5601 13.828 19.9121 14.8 19.8281 15.776C19.8081 16.032 20.2081 16.032 20.2281 15.776C20.3201 14.704 19.9081 13.612 19.1441 12.86C18.9601 12.676 18.6761 12.96 18.8601 13.14Z" fill="white"/>
<path d="M20.832 13.988C20.9 14.828 20.864 15.672 20.712 16.5C20.668 16.752 21.052 16.86 21.096 16.608C21.252 15.744 21.3 14.864 21.232 13.988C21.212 13.732 20.812 13.732 20.832 13.988Z" fill="white"/>
</g>
</g>
</g>
<defs>
<clipPath id="clip0_286_1419">
<rect width="48" height="48" rx="4" fill="white"/>
</clipPath>
<clipPath id="clip1_286_1419">
<rect width="48" height="48" fill="white"/>
</clipPath>
<clipPath id="clip2_286_1419">
<rect width="25.992" height="36.476" fill="white" transform="translate(13.2 14)"/>
</clipPath>
<clipPath id="clip3_286_1419">
<rect width="2.464" height="3.952" fill="white" transform="translate(18.8 12.8)"/>
</clipPath>
</defs>
</svg>
